<?xml version="1.0" encoding="UTF-8"?>
<svg xmlns="http://www.w3.org/2000/svg" width="66.900mm" height="108.000mm" viewBox="0 0 66.900 108.000">
<g fill="none" stroke="black" stroke-width="0.1">
<polyline points="28.000,31.250 27.900,31.250 27.800,31.250 27.750,31.300 27.700,31.350 27.650,31.300 27.600,31.250 27.550,31.200 27.550,31.100 27.550,31.000 27.550,30.900 27.550,30.800 27.550,30.700 27.550,30.600 27.550,30.500 27.550,30.400 27.600,30.350 27.700,30.350 27.800,30.350 27.900,30.350 28.000,30.350 28.050,30.300 28.100,30.250 28.200,30.250 28.250,30.300 28.300,30.350 28.400,30.350 28.450,30.400 28.450,30.500 28.450,30.600 28.450,30.700 28.450,30.800 28.400,30.850 28.350,30.900 28.350,31.000 28.350,31.100 28.350,31.200 28.300,31.250 28.250,31.300 28.200,31.350 28.150,31.300 28.100,31.250" />
<polyline points="33.200,72.150 33.150,72.200 33.150,72.300 33.200,72.350 33.250,72.400 33.250,72.500 33.250,72.600 33.250,72.700 33.200,72.750 33.150,72.700 33.100,72.650 33.050,72.600 33.050,72.500 33.050,72.400 33.050,72.300 33.050,72.200 33.100,72.150 33.150,72.100 33.150,72.000 33.150,71.900 33.150,71.800 33.150,71.700 33.150,71.600 33.150,71.500 33.150,71.400 33.150,71.300 33.150,71.200 33.100,71.150 33.050,71.100 33.050,71.000 33.100,70.950 33.150,70.900 33.150,70.800 33.150,70.700 33.150,70.600 33.200,70.550 33.250,70.600 33.300,70.650 33.350,70.700 33.350,70.800 33.300,70.850 33.250,70.900 33.200,70.950 33.150,71.000 33.150,71.100 33.200,71.150 33.250,71.200 33.250,71.300 33.250,71.400 33.250,71.500 33.250,71.600 33.250,71.700 33.250,71.800 33.250,71.900 33.250,72.000 33.250,72.100" />
<polyline points="44.050,104.800 44.000,104.750 43.950,104.800 44.000,104.850" />
<polyline points="35.100,21.750 35.000,21.750 34.950,21.800 34.950,21.900 34.950,22.000 34.900,22.050 34.850,22.100 34.850,22.200 34.800,22.250 34.750,22.300 34.700,22.350 34.650,22.400 34.600,22.450 34.550,22.500 34.550,22.600 34.500,22.650 34.450,22.700 34.400,22.750 34.300,22.750 34.200,22.750 34.100,22.750 34.050,22.800 34.000,22.850 33.950,22.900 33.900,22.950 33.800,22.950 33.750,23.000 33.700,23.050 33.650,23.000 33.600,22.950 33.550,23.000 33.500,23.050 33.400,23.050 33.300,23.050 33.200,23.050 33.100,23.050 33.050,23.000 33.000,22.950 32.900,22.950 32.850,23.000 32.800,23.050 32.700,23.050 32.600,23.050 32.500,23.050 32.400,23.050 32.300,23.050 32.200,23.050 32.100,23.050 32.000,23.050 31.950,23.100 31.900,23.150 31.800,23.150 31.700,23.150 31.650,23.100 31.600,23.050 31.500,23.050 31.450,23.000 31.400,22.950 31.300,22.950 31.200,22.950 31.100,22.950 31.000,22.950 30.950,22.900 31.000,22.850 31.050,22.800 31.100,22.750 31.150,22.700 31.150,22.600 31.100,22.550 31.050,22.500 31.050,22.400 31.050,22.300 31.050,22.200 31.050,22.100 31.050,22.000 31.050,21.900 31.050,21.800 31.050,21.700 31.050,21.600 31.100,21.550 31.150,21.500 31.150,21.400 31.200,21.350 31.250,21.300 31.250,21.200 31.250,21.100 31.300,21.050 31.350,21.000 31.400,20.950 31.450,20.900 31.500,20.850 31.550,20.800 31.500,20.750 31.450,20.700 31.500,20.650 31.550,20.600 31.600,20.550 31.700,20.550 31.750,20.500 31.750,20.400 31.750,20.300 31.800,20.250 31.850,20.200 31.900,20.150 31.950,20.100 32.000,20.050 32.050,20.000 32.000,19.950 31.950,19.900 32.000,19.850 32.050,19.900 32.100,19.950 32.200,19.950 32.250,19.900 32.250,19.800 32.300,19.750 32.400,19.750 32.450,19.700 32.500,19.650 32.600,19.650 32.650,19.600 32.700,19.550 32.800,19.550 32.900,19.550 33.000,19.550 33.100,19.550 33.200,19.550 33.250,19.500 33.300,19.450 33.400,19.450 33.450,19.400 33.500,19.350 33.550,19.400 33.600,19.450 33.650,19.400 33.700,19.350 33.800,19.350 33.900,19.350 34.000,19.350 34.100,19.350 34.200,19.350 34.300,19.350 34.400,19.350 34.500,19.350 34.550,19.400 34.600,19.450 34.700,19.450 34.750,19.500 34.800,19.550 34.900,19.550 34.950,19.600 35.000,19.650 35.050,19.700 35.100,19.750 35.150,19.800 35.200,19.850 35.250,19.900 35.250,20.000 35.250,20.100 35.250,20.200 35.300,20.250 35.400,20.250 35.500,20.250 35.550,20.300 35.550,20.400 35.550,20.500 35.550,20.600 35.550,20.700 35.500,20.750 35.400,20.750 35.350,20.800 35.400,20.850 35.450,20.900 35.450,21.000 35.400,21.050 35.350,21.100 35.300,21.150 35.250,21.200 35.200,21.250 35.150,21.300 35.150,21.400 35.150,21.500 35.150,21.600 35.150,21.700" />
<polyline points="21.750,23.000 21.700,22.950 21.600,22.950 21.550,22.900 21.500,22.850 21.400,22.850 21.300,22.850 21.250,22.800 21.250,22.700 21.250,22.600 21.250,22.500 21.200,22.450 21.150,22.400 21.200,22.350 21.250,22.300 21.200,22.250 21.100,22.250 21.050,22.200 21.000,22.150 20.950,22.100 20.900,22.050 20.850,22.000 20.800,21.950 20.750,21.900 20.750,21.800 20.800,21.750 20.900,21.750 20.950,21.700 20.900,21.650 20.800,21.650 20.700,21.650 20.600,21.650 20.550,21.600 20.550,21.500 20.500,21.450 20.450,21.400 20.450,21.300 20.400,21.250 20.350,21.200 20.350,21.100 20.300,21.050 20.250,21.000 20.200,20.950 20.150,20.900 20.150,20.800 20.200,20.750 20.250,20.700 20.250,20.600 20.250,20.500 20.250,20.400 20.300,20.350 20.350,20.300 20.400,20.250 20.450,20.200 20.500,20.150 20.600,20.150 20.650,20.100 20.700,20.050 20.750,20.000 20.800,19.950 20.850,19.900 20.900,19.850 21.000,19.850 21.050,19.800 21.100,19.750 21.200,19.750 21.300,19.750 21.400,19.750 21.500,19.750 21.600,19.750 21.700,19.750 21.800,19.750 21.900,19.750 22.000,19.750 22.100,19.750 22.200,19.750 22.300,19.750 22.400,19.750 22.500,19.750 22.600,19.750 22.700,19.750 22.800,19.750 22.850,19.800 22.900,19.850 23.000,19.850 23.100,19.850 23.200,19.850 23.250,19.900 23.300,19.950 23.350,20.000 23.400,20.050 23.450,20.100 23.500,20.150 23.600,20.150 23.700,20.150 23.750,20.200 23.800,20.250 23.900,20.250 24.000,20.250 24.050,20.300 24.050,20.400 24.100,20.450 24.150,20.500 24.200,20.550 24.250,20.600 24.300,20.650 24.350,20.700 24.350,20.800 24.350,20.900 24.400,20.950 24.500,20.950 24.550,21.000 24.550,21.100 24.550,21.200 24.550,21.300 24.550,21.400 24.550,21.500 24.600,21.550 24.700,21.550 24.750,21.600 24.700,21.650 24.650,21.700 24.650,21.800 24.650,21.900 24.700,21.950 24.750,22.000 24.800,22.050 24.850,22.100 24.900,22.150 24.950,22.200 24.900,22.250 24.850,22.300 24.850,22.400 24.850,22.500 24.850,22.600 24.850,22.700 24.800,22.750 24.750,22.800 24.750,22.900 24.700,22.950 24.650,23.000 24.650,23.100 24.650,23.200 24.650,23.300 24.600,23.350 24.500,23.350 24.400,23.350 24.300,23.350 24.250,23.400 24.200,23.450 24.150,23.400 24.100,23.350 24.000,23.350 23.900,23.350 23.800,23.350 23.700,23.350 23.650,23.300 23.600,23.250 23.500,23.250 23.400,23.250 23.300,23.250 23.200,23.250 23.100,23.250 23.000,23.250 22.900,23.250 22.800,23.250 22.700,23.250 22.650,23.200 22.600,23.150 22.500,23.150 22.450,23.200 22.400,23.250 22.300,23.250 22.200,23.250 22.150,23.200 22.100,23.150 22.050,23.200 22.000,23.250 21.900,23.250 21.850,23.200 21.850,23.100 21.800,23.050" />
<polyline points="33.450,62.300 33.450,62.200 33.450,62.100 33.450,62.000 33.450,61.900 33.450,61.800 33.450,61.700 33.450,61.600 33.400,61.550 33.300,61.550 33.250,61.600 33.250,61.700 33.250,61.800 33.250,61.900 33.250,62.000 33.250,62.100 33.250,62.200 33.250,62.300 33.250,62.400 33.250,62.500 33.300,62.550 33.400,62.550 33.450,62.500 33.450,62.400" />
<polyline points="35.900,58.050 35.850,58.000 35.850,57.900 35.800,57.850 35.750,57.800 35.750,57.700 35.750,57.600 35.700,57.550 35.650,57.500 35.650,57.400 35.600,57.350 35.500,57.350 35.400,57.350 35.350,57.300 35.300,57.250 35.250,57.200 35.250,57.100 35.250,57.000 35.250,56.900 35.250,56.800 35.300,56.750 35.350,56.700 35.350,56.600 35.300,56.550 35.200,56.550 35.100,56.550 35.050,56.500 35.000,56.450 34.950,56.400 34.900,56.350 34.850,56.300 34.800,56.250 34.750,56.200 34.700,56.150 34.650,56.100 34.600,56.050 34.500,56.050 34.450,56.100 34.400,56.150 34.350,56.200 34.300,56.250 34.250,56.200 34.200,56.150 34.100,56.150 34.050,56.200 34.000,56.250 33.900,56.250 33.850,56.200 33.850,56.100 33.850,56.000 33.900,55.950 34.000,55.950 34.050,56.000 34.100,56.050 34.200,56.050 34.250,56.000 34.300,55.950 34.350,55.900 34.300,55.850 34.200,55.850 34.100,55.850 34.000,55.850 33.900,55.850 33.800,55.850 33.750,55.900 33.750,56.000 33.750,56.100 33.700,56.150 33.650,56.200 33.650,56.300 33.600,56.350 33.550,56.400 33.500,56.450 33.450,56.500 33.400,56.550 33.350,56.600 33.350,56.700 33.400,56.750 33.450,56.800 33.450,56.900 33.400,56.950 33.350,57.000 33.350,57.100 33.350,57.200 33.350,57.300 33.300,57.350 33.250,57.400 33.250,57.500 33.200,57.550 33.150,57.600 33.150,57.700 33.200,57.750 33.250,57.800 33.300,57.850 33.350,57.900 33.350,58.000 33.350,58.100 33.350,58.200 33.350,58.300 33.400,58.350 33.450,58.400 33.450,58.500 33.400,58.550 33.350,58.600 33.350,58.700 33.350,58.800 33.350,58.900 33.300,58.950 33.250,59.000 33.250,59.100 33.250,59.200 33.300,59.250 33.350,59.300 33.400,59.350 33.500,59.350 33.550,59.300 33.600,59.250 33.700,59.250 33.750,59.200 33.800,59.150 33.850,59.200 33.850,59.300 33.800,59.350 33.700,59.350 33.650,59.400 33.650,59.500 33.650,59.600 33.700,59.650 33.750,59.700 33.800,59.750 33.900,59.750 33.950,59.800 34.000,59.850 34.050,59.800 34.100,59.750 34.150,59.700 34.100,59.650 34.000,59.650 33.950,59.600 33.900,59.550 33.850,59.500 33.850,59.400 33.900,59.350 33.950,59.400 34.000,59.450 34.100,59.450 34.200,59.450 34.300,59.450 34.400,59.450 34.450,59.400 34.450,59.300 34.450,59.200 34.400,59.150 34.350,59.100 34.400,59.050 34.500,59.050 34.600,59.050 34.650,59.100 34.600,59.150 34.550,59.200 34.600,59.250 34.700,59.250 34.750,59.200 34.800,59.150 34.900,59.150 35.000,59.150 35.050,59.100 35.000,59.050 34.950,59.000 34.900,58.950 34.850,58.900 34.900,58.850 35.000,58.850 35.050,58.900 35.100,58.950 35.150,58.900 35.200,58.850 35.250,58.900 35.250,59.000 35.250,59.100 35.300,59.150 35.400,59.150 35.450,59.100 35.450,59.000 35.500,58.950 35.550,58.900 35.600,58.850 35.700,58.850 35.800,58.850 35.850,58.800 35.850,58.700 35.850,58.600 35.850,58.500 35.900,58.450 35.950,58.400 36.000,58.350 36.050,58.300 36.050,58.200 36.000,58.150 35.950,58.100" />
<polyline points="33.750,65.800 33.750,65.700 33.750,65.600 33.750,65.500 33.750,65.400 33.750,65.300 33.750,65.200 33.750,65.100 33.750,65.000 33.750,64.900 33.750,64.800 33.700,64.750 33.650,64.700 33.700,64.650 33.750,64.600 33.750,64.500 33.800,64.450 33.850,64.400 33.850,64.300 33.800,64.250 33.750,64.200 33.750,64.100 33.700,64.050 33.650,64.000 33.700,63.950 33.800,63.950 33.850,63.900 33.850,63.800 33.800,63.750 33.750,63.700 33.700,63.650 33.650,63.600 33.600,63.550 33.550,63.600 33.500,63.650 33.400,63.650 33.350,63.700 33.350,63.800 33.400,63.850 33.450,63.900 33.450,64.000 33.450,64.100 33.400,64.150 33.350,64.200 33.300,64.250 33.250,64.200 33.250,64.100 33.200,64.050 33.100,64.050 33.050,64.100 33.050,64.200 33.050,64.300 33.050,64.400 33.100,64.450 33.150,64.500 33.150,64.600 33.150,64.700 33.150,64.800 33.150,64.900 33.200,64.950 33.250,65.000 33.300,65.050 33.400,65.050 33.450,65.000 33.450,64.900 33.450,64.800 33.400,64.750 33.350,64.700 33.300,64.650 33.250,64.600 33.250,64.500 33.250,64.400 33.300,64.350 33.350,64.300 33.400,64.250 33.450,64.300 33.500,64.350 33.550,64.400 33.550,64.500 33.550,64.600 33.550,64.700 33.550,64.800 33.550,64.900 33.550,65.000 33.550,65.100 33.600,65.150 33.650,65.200 33.650,65.300 33.650,65.400 33.650,65.500 33.650,65.600 33.650,65.700 33.650,65.800 33.650,65.900 33.650,66.000 33.650,66.100 33.650,66.200 33.650,66.300 33.700,66.350 33.750,66.300 33.750,66.200 33.750,66.100 33.750,66.000 33.750,65.900" />
<polyline points="33.150,69.100 33.150,69.000 33.200,68.950 33.250,68.900 33.300,68.850 33.350,68.900 33.400,68.950 33.450,69.000 33.450,69.100 33.450,69.200 33.400,69.250 33.300,69.250 33.200,69.250 33.150,69.200" />
<polyline points="33.050,70.400 33.100,70.350 33.150,70.400 33.100,70.450" />
<polyline points="33.800,61.150 33.750,61.100 33.750,61.000 33.750,60.900 33.750,60.800 33.800,60.750 33.850,60.800 33.850,60.900 33.850,61.000 33.850,61.100" />
<polyline points="33.550,68.500 33.550,68.400 33.500,68.350 33.450,68.300 33.400,68.250 33.350,68.300 33.300,68.350 33.250,68.400 33.250,68.500 33.300,68.550 33.400,68.550 33.500,68.550" />
<polyline points="33.750,68.000 33.750,67.900 33.700,67.850 33.650,67.900 33.650,68.000 33.700,68.050" />
<polyline points="33.650,68.500 33.700,68.450 33.750,68.500 33.750,68.600 33.700,68.650 33.650,68.600" />
<polyline points="16.350,12.400 16.350,12.300 16.400,12.250 16.500,12.250 16.550,12.300 16.550,12.400 16.500,12.450 16.450,12.500 16.400,12.550 16.350,12.500" />
<polyline points="32.900,70.550 32.850,70.600 32.850,70.700 32.850,70.800 32.850,70.900 32.900,70.950 32.950,70.900 32.950,70.800 32.950,70.700 32.950,70.600" />
<polyline points="32.950,71.900 32.950,71.800 33.000,71.750 33.050,71.800 33.050,71.900 33.000,71.950 32.950,72.000 32.950,72.100 32.950,72.200 32.900,72.250 32.850,72.200 32.850,72.100 32.850,72.000 32.900,71.950" />
<polyline points="27.750,28.800 27.700,28.750 27.650,28.800 27.700,28.850" />
<polyline points="32.850,74.300 32.900,74.250 32.950,74.300 32.900,74.350" />
<polyline points="33.150,72.900 33.200,72.850 33.300,72.850 33.350,72.900 33.350,73.000 33.300,73.050 33.200,73.050 33.150,73.000" />
<polyline points="33.750,62.600 33.800,62.550 33.850,62.500 33.900,62.450 33.950,62.500 33.950,62.600 33.900,62.650 33.800,62.650" />
<polyline points="33.350,65.500 33.400,65.450 33.450,65.400 33.500,65.350 33.550,65.400 33.550,65.500 33.500,65.550 33.400,65.550" />
<polyline points="33.650,63.800 33.600,63.750 33.550,63.800 33.550,63.900 33.600,63.950 33.650,63.900" />
<polyline points="33.600,62.150 33.550,62.100 33.550,62.000 33.550,61.900 33.550,61.800 33.600,61.750 33.700,61.750 33.750,61.700 33.750,61.600 33.750,61.500 33.800,61.450 33.850,61.500 33.850,61.600 33.850,61.700 33.850,61.800 33.850,61.900 33.850,62.000 33.850,62.100 33.800,62.150 33.750,62.200 33.750,62.300 33.700,62.350 33.650,62.300 33.650,62.200" />
<polyline points="33.450,72.000 33.450,71.900 33.450,71.800 33.450,71.700 33.450,71.600 33.450,71.500 33.450,71.400 33.450,71.300 33.450,71.200 33.450,71.100 33.450,71.000 33.400,70.950 33.350,71.000 33.350,71.100 33.350,71.200 33.350,71.300 33.350,71.400 33.350,71.500 33.350,71.600 33.350,71.700 33.350,71.800 33.350,71.900 33.350,72.000 33.400,72.050" />
<polyline points="32.800,64.550 32.750,64.500 32.750,64.400 32.800,64.350 32.850,64.400 32.850,64.500" />
<polyline points="33.300,66.250 33.250,66.300 33.300,66.350 33.350,66.300" />
<polyline points="33.850,63.100 33.850,63.000 33.800,62.950 33.750,63.000 33.750,63.100 33.800,63.150" />
<polyline points="17.300,14.450 17.250,14.400 17.300,14.350 17.350,14.400" />
<polyline points="27.750,29.000 27.700,28.950 27.650,29.000 27.650,29.100 27.700,29.150 27.800,29.150 27.850,29.100 27.800,29.050" />
<polyline points="15.450,42.900 15.500,42.850 15.550,42.800 15.500,42.750 15.400,42.750 15.350,42.800 15.300,42.850 15.250,42.900 15.300,42.950 15.400,42.950" />
<polyline points="35.650,56.800 35.600,56.750 35.550,56.800 35.550,56.900 35.600,56.950 35.650,56.900" />
<polyline points="33.650,67.400 33.650,67.300 33.700,67.250 33.750,67.300 33.750,67.400 33.750,67.500 33.700,67.550 33.600,67.550 33.550,67.500 33.600,67.450" />
<polyline points="33.600,63.250 33.550,63.200 33.600,63.150 33.650,63.200" />
<polyline points="33.800,59.950 33.750,60.000 33.750,60.100 33.750,60.200 33.750,60.300 33.750,60.400 33.800,60.450 33.850,60.400 33.900,60.350 33.950,60.300 33.950,60.200 33.900,60.150 33.850,60.100 33.850,60.000" />
<polyline points="33.600,62.550 33.550,62.600 33.600,62.650 33.650,62.600" />
<polyline points="33.150,73.600 33.200,73.550 33.250,73.600 33.200,73.650" />
<polyline points="33.600,61.450 33.550,61.500 33.600,61.550 33.650,61.500" />
<polyline points="34.000,61.950 33.950,62.000 33.950,62.100 33.950,62.200 33.950,62.300 34.000,62.350 34.050,62.300 34.050,62.200 34.050,62.100 34.050,62.000" />
<polyline points="32.900,72.750 32.850,72.700 32.850,72.600 32.900,72.550 32.950,72.600 32.950,72.700" />
<polyline points="33.600,66.750 33.550,66.700 33.550,66.600 33.600,66.550 33.650,66.600 33.650,66.700" />
<polyline points="33.400,70.350 33.350,70.400 33.400,70.450 33.450,70.400" />
<polyline points="34.500,55.850 34.450,55.900 34.500,55.950 34.550,55.900" />
<polyline points="24.200,103.450 24.150,103.500 24.200,103.550 24.250,103.500" />
</g>
</svg>
