<?xml version="1.0" encoding="UTF-8"?>
<svg xmlns="http://www.w3.org/2000/svg" width="66.900mm" height="108.000mm" viewBox="0 0 66.900 108.000">
<g fill="none" stroke="black" stroke-width="0.1">
<polyline points="34.950,7.300 35.000,7.250 35.050,7.200 35.100,7.150 35.200,7.150 35.250,7.100 35.300,7.050 35.400,7.050 35.450,7.000 35.500,6.950 35.600,6.950 35.650,6.900 35.700,6.850 35.800,6.850 35.850,6.800 35.850,6.700 35.900,6.650 36.000,6.650 36.050,6.600 36.100,6.550 36.200,6.550 36.250,6.500 36.300,6.450 36.350,6.400 36.400,6.350 36.450,6.300 36.500,6.250 36.550,6.200 36.600,6.150 36.650,6.100 36.700,6.050 36.750,6.000 36.800,5.950 36.850,5.900 36.900,5.850 36.950,5.800 37.000,5.750 37.050,5.700 37.100,5.650 37.150,5.600 37.150,5.500 37.200,5.450 37.300,5.450 37.350,5.400 37.400,5.350 37.450,5.300 37.450,5.200 37.500,5.150 37.550,5.100 37.600,5.050 37.650,5.000 37.700,4.950 37.750,4.900 37.800,4.850 37.850,4.800 37.850,4.700 37.900,4.650 37.950,4.600 38.000,4.550 38.050,4.500 38.100,4.450 38.150,4.400 38.200,4.350 38.250,4.300 38.300,4.250 38.400,4.250 38.450,4.200 38.500,4.150 38.600,4.150 38.650,4.100 38.700,4.050 38.800,4.050 38.900,4.050 38.950,4.000 39.000,3.950 39.100,3.950 39.200,3.950 39.250,3.900 39.300,3.850 39.400,3.850 39.500,3.850 39.600,3.850 39.700,3.850 39.750,3.800 39.800,3.750 39.900,3.750 40.000,3.750 40.100,3.750 40.200,3.750 40.250,3.700 40.300,3.650 40.400,3.650 40.500,3.650 40.600,3.650 40.650,3.600 40.700,3.550 40.800,3.550 40.900,3.550 41.000,3.550 41.100,3.550 41.200,3.550 41.300,3.550 41.400,3.550 41.500,3.550 41.600,3.550 41.700,3.550 41.800,3.550 41.900,3.550 42.000,3.550 42.100,3.550 42.200,3.550 42.250,3.600 42.300,3.650 42.350,3.700 42.400,3.750 42.450,3.800 42.450,3.900 42.450,4.000 42.500,4.050 42.550,4.100 42.550,4.200 42.550,4.300 42.600,4.350 42.700,4.350 42.750,4.400 42.750,4.500 42.750,4.600 42.800,4.650 42.850,4.700 42.900,4.750 42.950,4.800 42.950,4.900 42.950,5.000 42.950,5.100 42.950,5.200 42.950,5.300 42.950,5.400 43.000,5.450 43.050,5.500 43.050,5.600 43.050,5.700 43.050,5.800 43.050,5.900 43.050,6.000 43.050,6.100 43.050,6.200 43.050,6.300 43.050,6.400 43.050,6.500 43.050,6.600 43.050,6.700 43.050,6.800 43.050,6.900 43.050,7.000 43.050,7.100 43.050,7.200 43.050,7.300 43.050,7.400 43.050,7.500 43.050,7.600 43.050,7.700 43.050,7.800 43.050,7.900 43.050,8.000 43.050,8.100 43.050,8.200 43.050,8.300 43.050,8.400 43.050,8.500 43.050,8.600 43.050,8.700 43.050,8.800 43.050,8.900 43.050,9.000 43.050,9.100 43.000,9.150 42.950,9.200 42.950,9.300 42.950,9.400 42.900,9.450 42.850,9.500 42.850,9.600 42.850,9.700 42.800,9.750 42.750,9.800 42.750,9.900 42.750,10.000 42.750,10.100 42.700,10.150 42.650,10.200 42.650,10.300 42.600,10.350 42.550,10.400 42.550,10.500 42.550,10.600 42.550,10.700 42.550,10.800 42.500,10.850 42.450,10.900 42.450,11.000 42.450,11.100 42.450,11.200 42.450,11.300 42.400,11.350 42.350,11.400 42.350,11.500 42.350,11.600 42.350,11.700 42.350,11.800 42.350,11.900 42.350,12.000 42.350,12.100 42.300,12.150 42.250,12.200 42.250,12.300 42.250,12.400 42.250,12.500 42.250,12.600 42.250,12.700 42.250,12.800 42.250,12.900 42.250,13.000 42.250,13.100 42.250,13.200 42.250,13.300 42.300,13.350 42.350,13.400 42.350,13.500 42.350,13.600 42.350,13.700 42.350,13.800 42.400,13.850 42.450,13.900 42.450,14.000 42.450,14.100 42.500,14.150 42.550,14.200 42.550,14.300 42.550,14.400 42.600,14.450 42.650,14.500 42.700,14.550 42.750,14.600 42.750,14.700 42.800,14.750 42.850,14.800 42.850,14.900 42.900,14.950 42.950,15.000 42.950,15.100 42.950,15.200 43.000,15.250 43.050,15.300 43.100,15.350 43.150,15.400 43.150,15.500 43.200,15.550 43.250,15.600 43.300,15.650 43.350,15.700 43.400,15.750 43.450,15.800 43.500,15.850 43.550,15.900 43.600,15.950 43.650,16.000 43.650,16.100 43.700,16.150 43.750,16.200 43.750,16.300 43.800,16.350 43.850,16.400 43.850,16.500 43.900,16.550 43.950,16.600 43.950,16.700 44.000,16.750 44.050,16.800 44.050,16.900 44.050,17.000 44.050,17.100 44.100,17.150 44.150,17.200 44.150,17.300 44.150,17.400 44.200,17.450 44.250,17.500 44.250,17.600 44.250,17.700 44.250,17.800 44.300,17.850 44.350,17.900 44.350,18.000 44.350,18.100 44.350,18.200 44.400,18.250 44.450,18.300 44.500,18.350 44.550,18.400 44.550,18.500 44.600,18.550 44.650,18.600 44.700,18.650 44.750,18.700 44.800,18.750 44.850,18.800 44.900,18.850 44.950,18.900 45.000,18.950 45.050,19.000 45.100,19.050 45.150,19.100 45.150,19.200 45.200,19.250 45.250,19.300 45.300,19.350 45.350,19.400 45.350,19.500 45.350,19.600 45.400,19.650 45.450,19.700 45.500,19.750 45.550,19.800 45.550,19.900 45.600,19.950 45.650,20.000 45.650,20.100 45.700,20.150 45.750,20.200 45.750,20.300 45.800,20.350 45.850,20.400 45.850,20.500 45.850,20.600 45.900,20.650 45.950,20.700 45.950,20.800 46.000,20.850 46.050,20.900 46.100,20.950 46.150,21.000 46.150,21.100 46.150,21.200 46.200,21.250 46.250,21.300 46.250,21.400 46.300,21.450 46.350,21.500 46.350,21.600 46.400,21.650 46.450,21.700 46.450,21.800 46.500,21.850 46.550,21.900 46.550,22.000 46.550,22.100 46.600,22.150 46.650,22.200 46.650,22.300 46.650,22.400 46.700,22.450 46.750,22.500 46.750,22.600 46.800,22.650 46.850,22.700 46.850,22.800 46.900,22.850 46.950,22.900 46.950,23.000 47.000,23.050 47.050,23.100 47.050,23.200 47.100,23.250 47.150,23.300 47.150,23.400 47.200,23.450 47.250,23.500 47.250,23.600 47.300,23.650 47.350,23.700 47.350,23.800 47.400,23.850 47.450,23.900 47.450,24.000 47.500,24.050 47.550,24.100 47.550,24.200 47.600,24.250 47.650,24.300 47.700,24.350 47.750,24.400 47.800,24.450 47.900,24.450 47.950,24.500 47.950,24.600 48.000,24.650 48.100,24.650 48.150,24.700 48.200,24.750 48.300,24.750 48.350,24.800 48.400,24.850 48.500,24.850 48.600,24.850 48.700,24.850 48.750,24.900 48.800,24.950 48.900,24.950 49.000,24.950 49.100,24.950 49.200,24.950 49.300,24.950 49.400,24.950 49.500,24.950 49.600,24.950 49.700,24.950 49.750,25.000 49.800,25.050 49.900,25.050 50.000,25.050 50.100,25.050 50.200,25.050 50.300,25.050 50.350,25.100 50.400,25.150 50.500,25.150 50.600,25.150 50.700,25.150 50.800,25.150 50.850,25.200 50.900,25.250 51.000,25.250 51.100,25.250 51.200,25.250 51.250,25.200 51.300,25.150 51.350,25.200 51.400,25.250 51.500,25.250 51.550,25.300 51.600,25.350 51.700,25.350 51.750,25.400 51.800,25.450 51.900,25.450 51.950,25.500 52.000,25.550 52.100,25.550 52.150,25.600 52.200,25.650 52.300,25.650 52.350,25.700 52.400,25.750 52.500,25.750 52.550,25.800 52.600,25.850 52.700,25.850 52.800,25.850 52.900,25.850 52.950,25.900 53.000,25.950 53.100,25.950 53.200,25.950 53.300,25.950 53.350,26.000 53.400,26.050 53.500,26.050 53.600,26.050 53.650,26.100 53.700,26.150 53.750,26.200 53.800,26.250 53.850,26.300 53.900,26.350 53.950,26.400 54.000,26.450 54.050,26.500 54.100,26.550 54.200,26.550 54.250,26.600 54.300,26.650 54.400,26.650 54.450,26.700 54.500,26.750 54.550,26.800 54.600,26.850 54.700,26.850 54.750,26.900 54.800,26.950 54.850,27.000 54.900,27.050 54.950,27.100 54.950,27.200 55.000,27.250 55.050,27.300 55.100,27.350 55.150,27.400 55.200,27.450 55.250,27.500 55.300,27.550 55.350,27.600 55.350,27.700 55.400,27.750 55.500,27.750 55.550,27.800 55.600,27.850 55.650,27.900 55.700,27.950 55.750,28.000 55.800,28.050 55.850,28.100 55.850,28.200 55.900,28.250 55.950,28.300 56.000,28.350 56.050,28.400 56.100,28.450 56.150,28.500 56.200,28.550 56.250,28.600 56.300,28.650 56.350,28.700 56.400,28.750 56.450,28.800 56.500,28.850 56.550,28.900 56.600,28.950 56.650,29.000 56.700,29.050 56.750,29.100 56.750,29.200 56.800,29.250 56.850,29.300 56.900,29.350 56.950,29.400 57.000,29.450 57.050,29.500 57.100,29.550 57.150,29.600 57.200,29.650 57.250,29.700 57.300,29.750 57.350,29.800 57.400,29.850 57.450,29.900 57.500,29.950 57.550,30.000 57.600,30.050 57.650,30.100 57.700,30.150 57.750,30.200 57.800,30.250 57.850,30.300 57.900,30.350 57.950,30.400 58.000,30.450 58.050,30.500 58.100,30.550 58.150,30.600 58.200,30.650 58.250,30.700 58.300,30.750 58.350,30.800 58.400,30.850 58.450,30.900 58.500,30.950 58.550,31.000 58.600,31.050 58.650,31.100 58.700,31.150 58.750,31.200 58.800,31.250 58.850,31.300 58.850,31.400 58.900,31.450 58.950,31.500 59.000,31.550 59.050,31.600 59.050,31.700 59.050,31.800 59.100,31.850 59.150,31.900 59.150,32.000 59.200,32.050 59.250,32.100 59.250,32.200 59.300,32.250 59.350,32.300 59.350,32.400 59.350,32.500 59.400,32.550 59.450,32.600 59.450,32.700 59.500,32.750 59.550,32.800 59.550,32.900 59.550,33.000 59.600,33.050 59.650,33.100 59.700,33.150 59.750,33.200 59.800,33.250 59.850,33.300 59.850,33.400 59.900,33.450 59.950,33.500 60.000,33.550 60.050,33.600 60.050,33.700 60.100,33.750 60.150,33.800 60.200,33.850 60.300,33.850 60.350,33.900 60.400,33.950 60.450,34.000 60.450,34.100 60.500,34.150 60.550,34.200 60.600,34.250 60.650,34.300 60.700,34.350 60.750,34.400 60.800,34.450 60.850,34.500 60.900,34.550 60.950,34.600 61.000,34.650 61.050,34.700 61.100,34.750 61.150,34.800 61.200,34.850 61.250,34.900 61.300,34.950 61.350,35.000 61.400,35.050 61.450,35.100 61.500,35.150 61.550,35.200 61.600,35.250 61.650,35.300 61.700,35.350 61.750,35.400 61.750,35.500 61.800,35.550 61.850,35.600 61.900,35.650 61.950,35.700 62.000,35.750 62.050,35.800 62.100,35.850 62.150,35.900 62.200,35.950 62.250,36.000 62.250,36.100 62.300,36.150 62.350,36.200 62.400,36.250 62.450,36.300 62.450,36.400 62.500,36.450 62.550,36.500 62.600,36.550 62.650,36.600 62.700,36.650 62.750,36.700 62.750,36.800 62.800,36.850 62.900,36.850 62.950,36.900 62.950,37.000 63.000,37.050 63.050,37.100 63.100,37.150 63.150,37.200 63.200,37.250 63.250,37.300 63.300,37.350 63.350,37.400 63.400,37.450 63.450,37.500 63.500,37.550 63.550,37.600 63.600,37.650 63.650,37.700 63.700,37.750 63.750,37.800 63.750,37.900 63.800,37.950 63.850,38.000 63.850,38.100 63.900,38.150 63.950,38.200 64.000,38.250 64.050,38.300 64.050,38.400 64.050,38.500 64.100,38.550 64.150,38.600 64.150,38.700 64.200,38.750 64.250,38.800 64.250,38.900 64.300,38.950 64.350,39.000 64.350,39.100 64.350,39.200 64.350,39.300 64.400,39.350 64.450,39.400 64.450,39.500 64.450,39.600 64.500,39.650 64.550,39.700 64.550,39.800 64.600,39.850 64.650,39.900 64.650,40.000 64.650,40.100 64.700,40.150 64.750,40.200 64.750,40.300 64.750,40.400 64.750,40.500 64.800,40.550 64.850,40.600 64.850,40.700 64.850,40.800 64.850,40.900 64.850,41.000 64.900,41.050 64.950,41.100 64.950,41.200 64.950,41.300 64.950,41.400 64.950,41.500 64.950,41.600 64.950,41.700 64.950,41.800 64.950,41.900 65.000,41.950 65.050,42.000 65.050,42.100 65.050,42.200 65.050,42.300 65.050,42.400 65.050,42.500 65.050,42.600 65.050,42.700 65.050,42.800 65.050,42.900 65.050,43.000 65.050,43.100 65.050,43.200 65.050,43.300 65.050,43.400 65.050,43.500 65.050,43.600 65.050,43.700 65.050,43.800 65.050,43.900 65.050,44.000 65.050,44.100 65.000,44.150 64.950,44.200 64.950,44.300 64.950,44.400 64.950,44.500 64.950,44.600 64.950,44.700 64.950,44.800 64.950,44.900 64.950,45.000 64.950,45.100 64.950,45.200 64.950,45.300 64.950,45.400 64.950,45.500 64.950,45.600 64.900,45.650 64.850,45.700 64.850,45.800 64.850,45.900 64.850,46.000 64.850,46.100 64.800,46.150 64.750,46.200 64.700,46.250 64.650,46.300 64.650,46.400 64.650,46.500 64.600,46.550 64.550,46.600 64.550,46.700 64.550,46.800 64.550,46.900 64.500,46.950 64.450,47.000 64.450,47.100 64.400,47.150 64.350,47.200 64.350,47.300 64.300,47.350 64.250,47.400 64.250,47.500 64.250,47.600 64.200,47.650 64.150,47.700 64.150,47.800 64.150,47.900 64.150,48.000 64.150,48.100 64.150,48.200 64.150,48.300 64.150,48.400 64.150,48.500 64.150,48.600 64.150,48.700 64.150,48.800 64.150,48.900 64.150,49.000 64.150,49.100 64.150,49.200 64.150,49.300 64.150,49.400 64.150,49.500 64.150,49.600 64.100,49.650 64.050,49.700 64.050,49.800 64.050,49.900 64.050,50.000 64.050,50.100 64.000,50.150 63.950,50.200 63.950,50.300 63.950,50.400 63.900,50.450 63.850,50.500 63.850,50.600 63.850,50.700 63.850,50.800 63.800,50.850 63.750,50.900 63.750,51.000 63.750,51.100 63.750,51.200 63.700,51.250 63.650,51.300 63.650,51.400 63.650,51.500 63.650,51.600 63.650,51.700 63.650,51.800 63.650,51.900 63.650,52.000 63.650,52.100 63.650,52.200 63.650,52.300 63.650,52.400 63.650,52.500 63.650,52.600 63.650,52.700 63.650,52.800 63.650,52.900 63.650,53.000 63.650,53.100 63.650,53.200 63.600,53.250 63.550,53.300 63.550,53.400 63.550,53.500 63.550,53.600 63.550,53.700 63.550,53.800 63.550,53.900 63.550,54.000 63.500,54.050 63.450,54.100 63.450,54.200 63.450,54.300 63.450,54.400 63.450,54.500 63.400,54.550 63.350,54.600 63.350,54.700 63.350,54.800 63.300,54.850 63.250,54.900 63.250,55.000 63.250,55.100 63.250,55.200 63.250,55.300 63.250,55.400 63.200,55.450 63.150,55.500 63.150,55.600 63.150,55.700 63.150,55.800 63.100,55.850 63.050,55.900 63.100,55.950 63.150,56.000 63.100,56.050 63.050,56.100 63.050,56.200 63.050,56.300 63.050,56.400 63.050,56.500 63.050,56.600 63.050,56.700 63.050,56.800 63.050,56.900 63.050,57.000 63.050,57.100 63.050,57.200 63.050,57.300 63.050,57.400 63.050,57.500 63.050,57.600 63.050,57.700 63.050,57.800 63.050,57.900 63.050,58.000 63.050,58.100 63.050,58.200 63.050,58.300 63.050,58.400 63.050,58.500 63.050,58.600 63.050,58.700 63.000,58.750 62.950,58.800 62.950,58.900 62.950,59.000 62.950,59.100 62.950,59.200 62.950,59.300 62.950,59.400 62.950,59.500 62.950,59.600 62.950,59.700 62.950,59.800 62.950,59.900 62.950,60.000 62.950,60.100 62.950,60.200 62.950,60.300 62.950,60.400 62.950,60.500 62.950,60.600 62.950,60.700 62.950,60.800 62.950,60.900 62.900,60.950 62.850,61.000 62.850,61.100 62.850,61.200 62.850,61.300 62.850,61.400 62.850,61.500 62.850,61.600 62.850,61.700 62.850,61.800 62.850,61.900 62.850,62.000 62.850,62.100 62.850,62.200 62.850,62.300 62.850,62.400 62.850,62.500 62.850,62.600 62.850,62.700 62.850,62.800 62.850,62.900 62.850,63.000 62.850,63.100 62.850,63.200 62.850,63.300 62.850,63.400 62.850,63.500 62.850,63.600 62.850,63.700 62.850,63.800 62.850,63.900 62.850,64.000 62.850,64.100 62.800,64.150 62.750,64.200 62.700,64.250 62.650,64.300 62.600,64.350 62.550,64.400 62.550,64.500 62.500,64.550 62.450,64.600 62.400,64.650 62.300,64.650 62.250,64.700 62.200,64.750 62.150,64.800 62.100,64.850 62.050,64.900 62.000,64.950 61.950,65.000 61.900,65.050 61.800,65.050 61.700,65.050 61.650,65.100 61.650,65.200 61.600,65.250 61.500,65.250 61.450,65.300 61.400,65.350 61.350,65.400 61.300,65.450 61.200,65.450 61.150,65.500 61.100,65.550 61.000,65.550 60.950,65.600 60.900,65.650 60.800,65.650 60.700,65.650 60.650,65.700 60.600,65.750 60.500,65.750 60.450,65.800 60.400,65.850 60.300,65.850 60.200,65.850 60.100,65.850 60.000,65.850 59.900,65.850 59.800,65.850 59.700,65.850 59.600,65.850 59.500,65.850 59.400,65.850 59.300,65.850 59.200,65.850 59.100,65.850 59.000,65.850 58.900,65.850 58.800,65.850 58.700,65.850 58.600,65.850 58.500,65.850 58.400,65.850 58.300,65.850 58.200,65.850 58.100,65.850 58.000,65.850 57.900,65.850 57.800,65.850 57.700,65.850 57.600,65.850 57.500,65.850 57.400,65.850 57.300,65.850 57.200,65.850 57.100,65.850 57.050,65.800 57.000,65.750 56.950,65.700 56.900,65.650 56.800,65.650 56.700,65.650 56.650,65.600 56.600,65.550 56.550,65.500 56.500,65.450 56.400,65.450 56.350,65.400 56.350,65.300 56.300,65.250 56.200,65.250 56.150,65.200 56.100,65.150 56.050,65.100 56.000,65.050 55.950,65.000 55.900,64.950 55.800,64.950 55.750,64.900 55.750,64.800 55.700,64.750 55.650,64.700 55.600,64.650 55.550,64.600 55.550,64.500 55.500,64.450 55.450,64.400 55.450,64.300 55.400,64.250 55.350,64.200 55.350,64.100 55.350,64.000 55.350,63.900 55.350,63.800 55.350,63.700 55.300,63.650 55.250,63.600 55.250,63.500 55.250,63.400 55.250,63.300 55.250,63.200 55.250,63.100 55.250,63.000 55.250,62.900 55.250,62.800 55.250,62.700 55.300,62.650 55.350,62.600 55.350,62.500 55.350,62.400 55.350,62.300 55.350,62.200 55.350,62.100 55.350,62.000 55.400,61.950 55.450,61.900 55.450,61.800 55.450,61.700 55.500,61.650 55.550,61.600 55.550,61.500 55.550,61.400 55.550,61.300 55.600,61.250 55.650,61.200 55.650,61.100 55.650,61.000 55.700,60.950 55.750,60.900 55.750,60.800 55.750,60.700 55.800,60.650 55.850,60.600 55.850,60.500 55.850,60.400 55.900,60.350 55.950,60.300 55.950,60.200 56.000,60.150 56.050,60.100 56.050,60.000 56.100,59.950 56.150,59.900 56.150,59.800 56.200,59.750 56.250,59.700 56.250,59.600 56.300,59.550 56.350,59.500 56.350,59.400 56.350,59.300 56.400,59.250 56.450,59.200 56.400,59.150 56.350,59.100 56.400,59.050 56.450,59.000 56.450,58.900 56.450,58.800 56.450,58.700 56.450,58.600 56.450,58.500 56.450,58.400 56.450,58.300 56.450,58.200 56.450,58.100 56.450,58.000 56.450,57.900 56.450,57.800 56.450,57.700 56.450,57.600 56.450,57.500 56.450,57.400 56.450,57.300 56.450,57.200 56.450,57.100 56.450,57.000 56.450,56.900 56.450,56.800 56.450,56.700 56.450,56.600 56.450,56.500 56.450,56.400 56.450,56.300 56.450,56.200 56.450,56.100 56.450,56.000 56.450,55.900 56.450,55.800 56.450,55.700 56.450,55.600 56.450,55.500 56.450,55.400 56.450,55.300 56.450,55.200 56.450,55.100 56.450,55.000 56.450,54.900 56.500,54.850 56.550,54.800 56.550,54.700 56.550,54.600 56.550,54.500 56.600,54.450 56.650,54.400 56.600,54.350 56.550,54.300 56.600,54.250 56.650,54.200 56.650,54.100 56.650,54.000 56.650,53.900 56.650,53.800 56.650,53.700 56.650,53.600 56.650,53.500 56.650,53.400 56.650,53.300 56.650,53.200 56.650,53.100 56.650,53.000 56.650,52.900 56.650,52.800 56.650,52.700 56.650,52.600 56.650,52.500 56.650,52.400 56.650,52.300 56.650,52.200 56.650,52.100 56.650,52.000 56.650,51.900 56.650,51.800 56.650,51.700 56.650,51.600 56.650,51.500 56.650,51.400 56.650,51.300 56.650,51.200 56.650,51.100 56.650,51.000 56.650,50.900 56.650,50.800 56.650,50.700 56.650,50.600 56.650,50.500 56.650,50.400 56.600,50.350 56.550,50.300 56.550,50.200 56.550,50.100 56.550,50.000 56.550,49.900 56.550,49.800 56.550,49.700 56.500,49.650 56.450,49.600 56.450,49.500 56.450,49.400 56.450,49.300 56.450,49.200 56.450,49.100 56.400,49.050 56.350,49.000 56.350,48.900 56.350,48.800 56.350,48.700 56.350,48.600 56.300,48.550 56.250,48.500 56.250,48.400 56.250,48.300 56.250,48.200 56.250,48.100 56.250,48.000 56.250,47.900 56.250,47.800 56.250,47.700 56.250,47.600 56.250,47.500 56.200,47.450 56.150,47.400 56.150,47.300 56.150,47.200 56.150,47.100 56.100,47.050 56.050,47.000 56.050,46.900 56.000,46.850 55.950,46.800 55.900,46.750 55.850,46.700 55.850,46.600 55.850,46.500 55.800,46.450 55.750,46.400 55.700,46.350 55.650,46.300 55.650,46.200 55.600,46.150 55.550,46.100 55.500,46.050 55.450,46.000 55.400,45.950 55.350,45.900 55.350,45.800 55.300,45.750 55.250,45.700 55.200,45.650 55.150,45.600 55.100,45.550 55.050,45.500 55.050,45.400 55.050,45.300 55.000,45.250 54.950,45.200 54.900,45.150 54.850,45.100 54.850,45.000 54.800,44.950 54.750,44.900 54.700,44.850 54.650,44.800 54.600,44.750 54.550,44.700 54.500,44.650 54.450,44.600 54.400,44.550 54.350,44.500 54.300,44.450 54.250,44.400 54.200,44.350 54.150,44.300 54.150,44.200 54.100,44.150 54.000,44.150 53.950,44.100 53.950,44.000 53.900,43.950 53.850,43.900 53.800,43.850 53.750,43.800 53.700,43.750 53.600,43.750 53.550,43.700 53.500,43.650 53.400,43.650 53.300,43.650 53.200,43.650 53.150,43.700 53.100,43.750 53.000,43.750 52.950,43.800 52.900,43.850 52.850,43.900 52.800,43.950 52.750,44.000 52.700,44.050 52.650,44.100 52.650,44.200 52.650,44.300 52.600,44.350 52.550,44.400 52.550,44.500 52.500,44.550 52.450,44.600 52.450,44.700 52.450,44.800 52.450,44.900 52.450,45.000 52.450,45.100 52.450,45.200 52.400,45.250 52.350,45.300 52.350,45.400 52.350,45.500 52.350,45.600 52.350,45.700 52.300,45.750 52.250,45.800 52.250,45.900 52.250,46.000 52.250,46.100 52.250,46.200 52.200,46.250 52.150,46.300 52.150,46.400 52.150,46.500 52.150,46.600 52.150,46.700 52.100,46.750 52.050,46.800 52.050,46.900 52.050,47.000 52.050,47.100 52.050,47.200 52.000,47.250 51.950,47.300 51.950,47.400 51.950,47.500 51.900,47.550 51.850,47.600 51.850,47.700 51.800,47.750 51.750,47.800 51.750,47.900 51.750,48.000 51.700,48.050 51.650,48.100 51.650,48.200 51.650,48.300 51.600,48.350 51.550,48.400 51.550,48.500 51.550,48.600 51.500,48.650 51.450,48.700 51.450,48.800 51.450,48.900 51.450,49.000 51.450,49.100 51.450,49.200 51.400,49.250 51.350,49.300 51.350,49.400 51.350,49.500 51.350,49.600 51.350,49.700 51.350,49.800 51.350,49.900 51.300,49.950 51.250,50.000 51.250,50.100 51.250,50.200 51.200,50.250 51.150,50.300 51.150,50.400 51.150,50.500 51.150,50.600 51.150,50.700 51.100,50.750 51.050,50.800 51.050,50.900 51.050,51.000 51.050,51.100 51.000,51.150 50.950,51.200 50.950,51.300 50.950,51.400 50.950,51.500 50.950,51.600 50.900,51.650 50.850,51.700 50.850,51.800 50.850,51.900 50.850,52.000 50.850,52.100 50.850,52.200 50.850,52.300 50.850,52.400 50.800,52.450 50.750,52.500 50.750,52.600 50.750,52.700 50.750,52.800 50.750,52.900 50.700,52.950 50.650,53.000 50.650,53.100 50.650,53.200 50.700,53.250 50.750,53.300 50.750,53.400 50.750,53.500 50.750,53.600 50.750,53.700 50.750,53.800 50.750,53.900 50.750,54.000 50.750,54.100 50.700,54.150 50.650,54.200 50.650,54.300 50.650,54.400 50.650,54.500 50.600,54.550 50.550,54.600 50.550,54.700 50.550,54.800 50.550,54.900 50.550,55.000 50.500,55.050 50.450,55.100 50.450,55.200 50.450,55.300 50.450,55.400 50.450,55.500 50.450,55.600 50.450,55.700 50.400,55.750 50.350,55.800 50.350,55.900 50.400,55.950 50.450,56.000 50.450,56.100 50.400,56.150 50.350,56.200 50.350,56.300 50.350,56.400 50.350,56.500 50.350,56.600 50.350,56.700 50.350,56.800 50.350,56.900 50.300,56.950 50.250,57.000 50.250,57.100 50.250,57.200 50.250,57.300 50.250,57.400 50.200,57.450 50.150,57.500 50.150,57.600 50.150,57.700 50.100,57.750 50.050,57.800 50.050,57.900 50.050,58.000 50.050,58.100 50.050,58.200 50.050,58.300 50.050,58.400 50.000,58.450 49.950,58.500 49.950,58.600 49.950,58.700 49.950,58.800 49.950,58.900 49.950,59.000 49.950,59.100 49.950,59.200 49.950,59.300 49.900,59.350 49.850,59.400 49.850,59.500 49.850,59.600 49.850,59.700 49.850,59.800 49.850,59.900 49.850,60.000 49.850,60.100 49.850,60.200 49.850,60.300 49.850,60.400 49.850,60.500 49.850,60.600 49.850,60.700 49.800,60.750 49.750,60.800 49.800,60.850 49.850,60.900 49.850,61.000 49.850,61.100 49.850,61.200 49.800,61.250 49.750,61.300 49.750,61.400 49.750,61.500 49.750,61.600 49.750,61.700 49.700,61.750 49.650,61.800 49.650,61.900 49.650,62.000 49.650,62.100 49.650,62.200 49.600,62.250 49.550,62.300 49.550,62.400 49.550,62.500 49.550,62.600 49.500,62.650 49.450,62.700 49.450,62.800 49.450,62.900 49.450,63.000 49.450,63.100 49.400,63.150 49.350,63.200 49.350,63.300 49.350,63.400 49.350,63.500 49.350,63.600 49.350,63.700 49.350,63.800 49.350,63.900 49.350,64.000 49.350,64.100 49.350,64.200 49.350,64.300 49.350,64.400 49.350,64.500 49.350,64.600 49.350,64.700 49.350,64.800 49.350,64.900 49.350,65.000 49.350,65.100 49.350,65.200 49.350,65.300 49.350,65.400 49.350,65.500 49.350,65.600 49.350,65.700 49.350,65.800 49.350,65.900 49.350,66.000 49.350,66.100 49.350,66.200 49.350,66.300 49.300,66.350 49.250,66.400 49.250,66.500 49.250,66.600 49.250,66.700 49.250,66.800 49.250,66.900 49.250,67.000 49.250,67.100 49.250,67.200 49.250,67.300 49.200,67.350 49.150,67.400 49.150,67.500 49.150,67.600 49.150,67.700 49.150,67.800 49.100,67.850 49.050,67.900 49.050,68.000 49.050,68.100 49.050,68.200 49.050,68.300 49.050,68.400 49.050,68.500 49.050,68.600 49.050,68.700 49.050,68.800 49.050,68.900 49.050,69.000 49.050,69.100 49.050,69.200 49.050,69.300 49.050,69.400 49.050,69.500 49.050,69.600 49.050,69.700 49.050,69.800 49.050,69.900 49.050,70.000 49.050,70.100 49.050,70.200 49.050,70.300 49.050,70.400 49.050,70.500 49.050,70.600 49.050,70.700 49.050,70.800 49.050,70.900 49.050,71.000 49.000,71.050 48.950,71.100 48.950,71.200 48.950,71.300 48.950,71.400 48.950,71.500 48.950,71.600 48.950,71.700 48.950,71.800 48.950,71.900 48.950,72.000 48.950,72.100 48.950,72.200 48.900,72.250 48.850,72.300 48.850,72.400 48.850,72.500 48.850,72.600 48.850,72.700 48.850,72.800 48.850,72.900 48.850,73.000 48.850,73.100 48.850,73.200 48.850,73.300 48.850,73.400 48.850,73.500 48.850,73.600 48.850,73.700 48.800,73.750 48.750,73.800 48.750,73.900 48.750,74.000 48.750,74.100 48.750,74.200 48.800,74.250 48.850,74.300 48.850,74.400 48.850,74.500 48.850,74.600 48.850,74.700 48.850,74.800 48.850,74.900 48.850,75.000 48.850,75.100 48.850,75.200 48.850,75.300 48.850,75.400 48.850,75.500 48.850,75.600 48.850,75.700 48.850,75.800 48.850,75.900 48.850,76.000 48.850,76.100 48.850,76.200 48.900,76.250 48.950,76.300 48.950,76.400 48.950,76.500 48.950,76.600 49.000,76.650 49.050,76.700 49.050,76.800 49.050,76.900 49.050,77.000 49.050,77.100 49.050,77.200 49.050,77.300 49.050,77.400 49.100,77.450 49.150,77.500 49.150,77.600 49.150,77.700 49.150,77.800 49.150,77.900 49.150,78.000 49.150,78.100 49.150,78.200 49.150,78.300 49.150,78.400 49.150,78.500 49.150,78.600 49.150,78.700 49.150,78.800 49.150,78.900 49.150,79.000 49.150,79.100 49.150,79.200 49.150,79.300 49.150,79.400 49.150,79.500 49.150,79.600 49.150,79.700 49.150,79.800 49.150,79.900 49.150,80.000 49.150,80.100 49.150,80.200 49.150,80.300 49.150,80.400 49.150,80.500 49.150,80.600 49.150,80.700 49.150,80.800 49.150,80.900 49.150,81.000 49.150,81.100 49.150,81.200 49.150,81.300 49.150,81.400 49.150,81.500 49.150,81.600 49.150,81.700 49.100,81.750 49.050,81.800 49.050,81.900 49.050,82.000 49.050,82.100 49.050,82.200 49.050,82.300 49.050,82.400 49.050,82.500 49.050,82.600 49.050,82.700 49.050,82.800 49.050,82.900 49.050,83.000 49.050,83.100 49.050,83.200 49.050,83.300 49.050,83.400 49.050,83.500 49.050,83.600 49.050,83.700 49.050,83.800 49.050,83.900 49.050,84.000 49.050,84.100 49.050,84.200 49.050,84.300 49.050,84.400 49.050,84.500 49.000,84.550 48.950,84.600 48.950,84.700 48.950,84.800 48.950,84.900 48.950,85.000 48.950,85.100 48.950,85.200 48.950,85.300 48.950,85.400 48.900,85.450 48.850,85.500 48.900,85.550 48.950,85.600 48.950,85.700 48.900,85.750 48.850,85.800 48.850,85.900 48.850,86.000 48.850,86.100 48.850,86.200 48.850,86.300 48.850,86.400 48.800,86.450 48.750,86.500 48.750,86.600 48.750,86.700 48.750,86.800 48.750,86.900 48.700,86.950 48.650,87.000 48.650,87.100 48.650,87.200 48.650,87.300 48.650,87.400 48.650,87.500 48.650,87.600 48.650,87.700 48.650,87.800 48.650,87.900 48.650,88.000 48.650,88.100 48.650,88.200 48.650,88.300 48.650,88.400 48.650,88.500 48.650,88.600 48.650,88.700 48.650,88.800 48.650,88.900 48.650,89.000 48.650,89.100 48.650,89.200 48.650,89.300 48.650,89.400 48.650,89.500 48.650,89.600 48.650,89.700 48.650,89.800 48.650,89.900 48.650,90.000 48.650,90.100 48.650,90.200 48.650,90.300 48.650,90.400 48.650,90.500 48.650,90.600 48.650,90.700 48.650,90.800 48.650,90.900 48.650,91.000 48.650,91.100 48.650,91.200 48.650,91.300 48.650,91.400 48.650,91.500 48.650,91.600 48.650,91.700 48.650,91.800 48.650,91.900 48.650,92.000 48.650,92.100 48.650,92.200 48.650,92.300 48.650,92.400 48.650,92.500 48.650,92.600 48.650,92.700 48.600,92.750 48.550,92.800 48.550,92.900 48.550,93.000 48.550,93.100 48.550,93.200 48.550,93.300 48.550,93.400 48.550,93.500 48.550,93.600 48.550,93.700 48.550,93.800 48.550,93.900 48.550,94.000 48.550,94.100 48.550,94.200 48.550,94.300 48.550,94.400 48.550,94.500 48.550,94.600 48.550,94.700 48.550,94.800 48.550,94.900 48.550,95.000 48.550,95.100 48.550,95.200 48.550,95.300 48.550,95.400 48.550,95.500 48.550,95.600 48.550,95.700 48.550,95.800 48.550,95.900 48.550,96.000 48.550,96.100 48.550,96.200 48.550,96.300 48.550,96.400 48.550,96.500 48.550,96.600 48.550,96.700 48.550,96.800 48.550,96.900 48.550,97.000 48.550,97.100 48.550,97.200 48.550,97.300 48.550,97.400 48.550,97.500 48.550,97.600 48.550,97.700 48.550,97.800 48.550,97.900 48.550,98.000 48.550,98.100 48.550,98.200 48.550,98.300 48.550,98.400 48.550,98.500 48.550,98.600 48.550,98.700 48.550,98.800 48.550,98.900 48.550,99.000 48.550,99.100 48.550,99.200 48.550,99.300 48.550,99.400 48.550,99.500 48.550,99.600 48.550,99.700 48.600,99.750 48.650,99.800 48.650,99.900 48.650,100.000 48.650,100.100 48.650,100.200 48.650,100.300 48.650,100.400 48.650,100.500 48.650,100.600 48.700,100.650 48.750,100.700 48.750,100.800 48.750,100.900 48.750,101.000 48.750,101.100 48.750,101.200 48.750,101.300 48.750,101.400 48.750,101.500 48.750,101.600 48.750,101.700 48.750,101.800 48.750,101.900 48.700,101.950 48.650,102.000 48.650,102.100 48.650,102.200 48.600,102.250 48.550,102.300 48.500,102.350 48.450,102.400 48.450,102.500 48.400,102.550 48.350,102.600 48.300,102.650 48.250,102.700 48.250,102.800 48.200,102.850 48.150,102.900 48.150,103.000 48.100,103.050 48.050,103.100 48.050,103.200 48.000,103.250 47.900,103.250 47.850,103.300 47.800,103.350 47.750,103.400 47.750,103.500 47.700,103.550 47.650,103.600 47.600,103.650 47.550,103.700 47.500,103.750 47.450,103.800 47.400,103.850 47.350,103.900 47.350,104.000 47.300,104.050 47.200,104.050 47.150,104.100 47.100,104.150 47.050,104.200 47.000,104.250 46.950,104.300 46.900,104.350 46.800,104.350 46.750,104.400 46.700,104.450 46.650,104.500 46.600,104.550 46.550,104.600 46.500,104.650 46.400,104.650 46.350,104.700 46.300,104.750 46.200,104.750 46.150,104.800 46.100,104.850 46.000,104.850 45.900,104.850 45.850,104.900 45.800,104.950 45.700,104.950 45.600,104.950 45.550,105.000 45.500,105.050 45.400,105.050 45.300,105.050 45.200,105.050 45.100,105.050 45.050,105.100 45.000,105.150 44.900,105.150 44.800,105.150 44.700,105.150 44.600,105.150 44.500,105.150 44.400,105.150 44.350,105.200 44.300,105.250 44.200,105.250 44.100,105.250 44.000,105.250 43.900,105.250 43.800,105.250 43.700,105.250 43.600,105.250 43.500,105.250 43.400,105.250 43.300,105.250 43.200,105.250 43.100,105.250 43.000,105.250 42.900,105.250 42.800,105.250 42.750,105.300 42.700,105.350 42.600,105.350 42.500,105.350 42.400,105.350 42.300,105.350 42.250,105.300 42.200,105.250 42.100,105.250 42.000,105.250 41.950,105.200 41.950,105.100 41.900,105.050 41.800,105.050 41.750,105.000 41.700,104.950 41.650,104.900 41.650,104.800 41.600,104.750 41.500,104.750 41.450,104.700 41.400,104.650 41.300,104.650 41.200,104.650 41.100,104.650 41.000,104.650 40.950,104.600 40.900,104.550 40.800,104.550 40.750,104.500 40.700,104.450 40.600,104.450 40.550,104.400 40.500,104.350 40.400,104.350 40.350,104.300 40.300,104.250 40.250,104.200 40.200,104.150 40.100,104.150 40.050,104.100 40.000,104.050 39.950,104.000 39.900,103.950 39.850,103.900 39.800,103.850 39.750,103.800 39.700,103.750 39.650,103.700 39.650,103.600 39.600,103.550 39.550,103.500 39.550,103.400 39.500,103.350 39.450,103.300 39.400,103.250 39.350,103.200 39.350,103.100 39.300,103.050 39.250,103.000 39.250,102.900 39.250,102.800 39.200,102.750 39.150,102.700 39.150,102.600 39.150,102.500 39.150,102.400 39.150,102.300 39.150,102.200 39.100,102.150 39.050,102.100 39.050,102.000 39.050,101.900 39.050,101.800 39.050,101.700 39.050,101.600 39.050,101.500 39.100,101.450 39.150,101.400 39.150,101.300 39.150,101.200 39.150,101.100 39.200,101.050 39.250,101.000 39.250,100.900 39.300,100.850 39.350,100.800 39.400,100.750 39.450,100.700 39.500,100.650 39.550,100.600 39.600,100.550 39.650,100.500 39.700,100.450 39.750,100.400 39.800,100.350 39.850,100.300 39.900,100.250 40.000,100.250 40.050,100.200 40.050,100.100 40.100,100.050 40.150,100.000 40.200,99.950 40.250,99.900 40.300,99.850 40.350,99.800 40.400,99.750 40.450,99.700 40.500,99.650 40.550,99.600 40.600,99.550 40.650,99.500 40.650,99.400 40.700,99.350 40.750,99.300 40.800,99.250 40.850,99.200 40.850,99.100 40.900,99.050 40.950,99.000 41.000,98.950 41.050,98.900 41.050,98.800 41.100,98.750 41.150,98.700 41.150,98.600 41.200,98.550 41.250,98.500 41.300,98.450 41.350,98.400 41.350,98.300 41.400,98.250 41.450,98.200 41.450,98.100 41.500,98.050 41.550,98.000 41.600,97.950 41.650,97.900 41.700,97.850 41.750,97.800 41.800,97.750 41.850,97.700 41.900,97.650 41.950,97.600 41.950,97.500 42.000,97.450 42.050,97.400 42.050,97.300 42.050,97.200 42.050,97.100 42.050,97.000 42.050,96.900 42.100,96.850 42.150,96.800 42.150,96.700 42.150,96.600 42.150,96.500 42.150,96.400 42.150,96.300 42.150,96.200 42.150,96.100 42.150,96.000 42.150,95.900 42.150,95.800 42.150,95.700 42.150,95.600 42.150,95.500 42.150,95.400 42.150,95.300 42.150,95.200 42.150,95.100 42.150,95.000 42.150,94.900 42.150,94.800 42.150,94.700 42.150,94.600 42.150,94.500 42.150,94.400 42.150,94.300 42.150,94.200 42.150,94.100 42.150,94.000 42.150,93.900 42.150,93.800 42.150,93.700 42.150,93.600 42.100,93.550 42.050,93.500 42.050,93.400 42.000,93.350 41.950,93.300 41.950,93.200 41.950,93.100 41.950,93.000 41.950,92.900 41.900,92.850 41.850,92.800 41.850,92.700 41.850,92.600 41.800,92.550 41.750,92.500 41.750,92.400 41.750,92.300 41.750,92.200 41.750,92.100 41.750,92.000 41.750,91.900 41.700,91.850 41.650,91.800 41.650,91.700 41.600,91.650 41.550,91.600 41.550,91.500 41.500,91.450 41.450,91.400 41.450,91.300 41.400,91.250 41.350,91.200 41.350,91.100 41.350,91.000 41.300,90.950 41.250,90.900 41.250,90.800 41.200,90.750 41.150,90.700 41.150,90.600 41.150,90.500 41.150,90.400 41.100,90.350 41.050,90.300 41.050,90.200 41.000,90.150 40.950,90.100 40.950,90.000 40.950,89.900 40.900,89.850 40.850,89.800 40.850,89.700 40.850,89.600 40.850,89.500 40.850,89.400 40.800,89.350 40.750,89.300 40.750,89.200 40.750,89.100 40.750,89.000 40.750,88.900 40.750,88.800 40.750,88.700 40.750,88.600 40.750,88.500 40.750,88.400 40.750,88.300 40.750,88.200 40.750,88.100 40.700,88.050 40.650,88.000 40.650,87.900 40.650,87.800 40.650,87.700 40.600,87.650 40.550,87.600 40.500,87.550 40.450,87.500 40.450,87.400 40.450,87.300 40.450,87.200 40.450,87.100 40.450,87.000 40.450,86.900 40.450,86.800 40.400,86.750 40.350,86.700 40.350,86.600 40.350,86.500 40.350,86.400 40.350,86.300 40.350,86.200 40.350,86.100 40.300,86.050 40.250,86.000 40.250,85.900 40.250,85.800 40.250,85.700 40.250,85.600 40.200,85.550 40.150,85.500 40.150,85.400 40.150,85.300 40.150,85.200 40.150,85.100 40.150,85.000 40.150,84.900 40.150,84.800 40.150,84.700 40.150,84.600 40.150,84.500 40.150,84.400 40.150,84.300 40.150,84.200 40.150,84.100 40.150,84.000 40.150,83.900 40.150,83.800 40.150,83.700 40.150,83.600 40.100,83.550 40.050,83.500 40.050,83.400 40.050,83.300 40.050,83.200 40.050,83.100 40.050,83.000 40.050,82.900 40.000,82.850 39.950,82.800 39.950,82.700 39.950,82.600 39.950,82.500 39.950,82.400 39.950,82.300 39.950,82.200 39.900,82.150 39.850,82.100 39.850,82.000 39.850,81.900 39.850,81.800 39.850,81.700 39.800,81.650 39.750,81.600 39.750,81.500 39.750,81.400 39.700,81.350 39.650,81.300 39.650,81.200 39.650,81.100 39.650,81.000 39.600,80.950 39.550,80.900 39.550,80.800 39.550,80.700 39.550,80.600 39.550,80.500 39.550,80.400 39.500,80.350 39.450,80.300 39.450,80.200 39.450,80.100 39.450,80.000 39.450,79.900 39.450,79.800 39.450,79.700 39.450,79.600 39.450,79.500 39.400,79.450 39.350,79.400 39.350,79.300 39.350,79.200 39.350,79.100 39.350,79.000 39.350,78.900 39.300,78.850 39.250,78.800 39.250,78.700 39.300,78.650 39.350,78.600 39.350,78.500 39.350,78.400 39.350,78.300 39.350,78.200 39.350,78.100 39.350,78.000 39.350,77.900 39.350,77.800 39.350,77.700 39.350,77.600 39.350,77.500 39.350,77.400 39.350,77.300 39.350,77.200 39.350,77.100 39.350,77.000 39.300,76.950 39.250,76.900 39.250,76.800 39.250,76.700 39.250,76.600 39.250,76.500 39.250,76.400 39.250,76.300 39.250,76.200 39.250,76.100 39.250,76.000 39.250,75.900 39.250,75.800 39.250,75.700 39.250,75.600 39.250,75.500 39.250,75.400 39.250,75.300 39.250,75.200 39.250,75.100 39.200,75.050 39.150,75.000 39.150,74.900 39.150,74.800 39.100,74.750 39.050,74.700 39.000,74.650 38.950,74.600 38.950,74.500 38.950,74.400 38.950,74.300 38.950,74.200 38.950,74.100 38.950,74.000 38.950,73.900 38.950,73.800 38.950,73.700 38.950,73.600 38.950,73.500 38.950,73.400 38.950,73.300 38.950,73.200 38.950,73.100 38.950,73.000 38.950,72.900 38.950,72.800 38.950,72.700 38.950,72.600 38.950,72.500 38.950,72.400 38.950,72.300 38.950,72.200 38.900,72.150 38.850,72.100 38.850,72.000 38.850,71.900 38.850,71.800 38.850,71.700 38.850,71.600 38.850,71.500 38.850,71.400 38.850,71.300 38.850,71.200 38.850,71.100 38.850,71.000 38.800,70.950 38.750,70.900 38.750,70.800 38.750,70.700 38.750,70.600 38.750,70.500 38.700,70.450 38.650,70.400 38.650,70.300 38.650,70.200 38.650,70.100 38.650,70.000 38.650,69.900 38.650,69.800 38.600,69.750 38.550,69.700 38.550,69.600 38.550,69.500 38.500,69.450 38.450,69.400 38.450,69.300 38.450,69.200 38.450,69.100 38.400,69.050 38.350,69.000 38.400,68.950 38.450,68.900 38.450,68.800 38.400,68.750 38.350,68.700 38.350,68.600 38.350,68.500 38.300,68.450 38.250,68.400 38.250,68.300 38.250,68.200 38.250,68.100 38.250,68.000 38.250,67.900 38.200,67.850 38.150,67.800 38.150,67.700 38.150,67.600 38.150,67.500 38.150,67.400 38.150,67.300 38.100,67.250 38.050,67.200 38.050,67.100 38.050,67.000 38.000,66.950 37.950,66.900 37.950,66.800 37.950,66.700 37.950,66.600 37.900,66.550 37.850,66.500 37.850,66.400 37.850,66.300 37.850,66.200 37.800,66.150 37.750,66.100 37.750,66.000 37.750,65.900 37.750,65.800 37.750,65.700 37.750,65.600 37.750,65.500 37.700,65.450 37.650,65.400 37.650,65.300 37.650,65.200 37.650,65.100 37.650,65.000 37.600,64.950 37.550,64.900 37.550,64.800 37.550,64.700 37.500,64.650 37.450,64.600 37.450,64.500 37.450,64.400 37.450,64.300 37.450,64.200 37.400,64.150 37.350,64.100 37.350,64.000 37.350,63.900 37.350,63.800 37.350,63.700 37.350,63.600 37.350,63.500 37.300,63.450 37.250,63.400 37.200,63.350 37.150,63.300 37.150,63.200 37.150,63.100 37.150,63.000 37.150,62.900 37.100,62.850 37.050,62.800 37.050,62.700 37.000,62.650 36.950,62.600 36.950,62.500 36.950,62.400 36.950,62.300 36.900,62.250 36.850,62.200 36.850,62.100 36.800,62.050 36.750,62.000 36.750,61.900 36.750,61.800 36.700,61.750 36.650,61.700 36.650,61.600 36.650,61.500 36.650,61.400 36.600,61.350 36.550,61.300 36.550,61.200 36.550,61.100 36.550,61.000 36.550,60.900 36.550,60.800 36.550,60.700 36.550,60.600 36.550,60.500 36.550,60.400 36.500,60.350 36.450,60.300 36.450,60.200 36.400,60.150 36.350,60.100 36.350,60.000 36.300,59.950 36.250,59.900 36.200,59.850 36.100,59.850 36.050,59.800 36.000,59.750 35.900,59.750 35.800,59.750 35.750,59.700 35.700,59.650 35.650,59.700 35.600,59.750 35.500,59.750 35.450,59.700 35.400,59.650 35.300,59.650 35.200,59.650 35.150,59.600 35.100,59.550 35.050,59.600 35.000,59.650 34.900,59.650 34.800,59.650 34.750,59.700 34.700,59.750 34.650,59.800 34.600,59.850 34.550,59.900 34.500,59.950 34.450,60.000 34.450,60.100 34.450,60.200 34.450,60.300 34.450,60.400 34.450,60.500 34.450,60.600 34.450,60.700 34.450,60.800 34.450,60.900 34.450,61.000 34.450,61.100 34.400,61.150 34.350,61.200 34.350,61.300 34.350,61.400 34.350,61.500 34.400,61.550 34.450,61.600 34.450,61.700 34.400,61.750 34.350,61.800 34.350,61.900 34.350,62.000 34.350,62.100 34.400,62.150 34.450,62.200 34.450,62.300 34.450,62.400 34.450,62.500 34.400,62.550 34.350,62.600 34.350,62.700 34.300,62.750 34.250,62.800 34.250,62.900 34.250,63.000 34.250,63.100 34.250,63.200 34.250,63.300 34.250,63.400 34.250,63.500 34.250,63.600 34.250,63.700 34.250,63.800 34.200,63.850 34.150,63.900 34.150,64.000 34.150,64.100 34.200,64.150 34.250,64.200 34.250,64.300 34.250,64.400 34.250,64.500 34.250,64.600 34.200,64.650 34.150,64.700 34.200,64.750 34.250,64.800 34.250,64.900 34.250,65.000 34.250,65.100 34.250,65.200 34.250,65.300 34.250,65.400 34.250,65.500 34.250,65.600 34.250,65.700 34.250,65.800 34.250,65.900 34.250,66.000 34.250,66.100 34.250,66.200 34.250,66.300 34.250,66.400 34.250,66.500 34.250,66.600 34.250,66.700 34.250,66.800 34.250,66.900 34.250,67.000 34.250,67.100 34.250,67.200 34.200,67.250 34.150,67.300 34.150,67.400 34.150,67.500 34.150,67.600 34.150,67.700 34.150,67.800 34.150,67.900 34.150,68.000 34.150,68.100 34.150,68.200 34.150,68.300 34.150,68.400 34.150,68.500 34.150,68.600 34.100,68.650 34.050,68.700 34.050,68.800 34.050,68.900 34.000,68.950 33.950,69.000 33.950,69.100 33.950,69.200 33.950,69.300 33.950,69.400 33.950,69.500 33.950,69.600 33.950,69.700 33.950,69.800 33.900,69.850 33.850,69.900 33.850,70.000 33.850,70.100 33.850,70.200 33.850,70.300 33.850,70.400 33.850,70.500 33.850,70.600 33.850,70.700 33.850,70.800 33.850,70.900 33.850,71.000 33.850,71.100 33.850,71.200 33.850,71.300 33.850,71.400 33.850,71.500 33.850,71.600 33.850,71.700 33.850,71.800 33.850,71.900 33.850,72.000 33.850,72.100 33.850,72.200 33.850,72.300 33.850,72.400 33.850,72.500 33.850,72.600 33.850,72.700 33.850,72.800 33.800,72.850 33.750,72.900 33.750,73.000 33.750,73.100 33.750,73.200 33.700,73.250 33.650,73.300 33.650,73.400 33.650,73.500 33.650,73.600 33.650,73.700 33.650,73.800 33.650,73.900 33.600,73.950 33.550,74.000 33.550,74.100 33.550,74.200 33.550,74.300 33.550,74.400 33.550,74.500 33.550,74.600 33.550,74.700 33.550,74.800 33.550,74.900 33.550,75.000 33.550,75.100 33.550,75.200 33.550,75.300 33.550,75.400 33.550,75.500 33.550,75.600 33.550,75.700 33.550,75.800 33.550,75.900 33.550,76.000 33.550,76.100 33.550,76.200 33.550,76.300 33.550,76.400 33.550,76.500 33.550,76.600 33.550,76.700 33.550,76.800 33.550,76.900 33.550,77.000 33.500,77.050 33.450,77.100 33.450,77.200 33.450,77.300 33.450,77.400 33.450,77.500 33.450,77.600 33.450,77.700 33.450,77.800 33.450,77.900 33.450,78.000 33.450,78.100 33.450,78.200 33.450,78.300 33.450,78.400 33.450,78.500 33.450,78.600 33.400,78.650 33.350,78.700 33.350,78.800 33.350,78.900 33.350,79.000 33.350,79.100 33.350,79.200 33.350,79.300 33.350,79.400 33.350,79.500 33.350,79.600 33.350,79.700 33.350,79.800 33.350,79.900 33.350,80.000 33.350,80.100 33.350,80.200 33.350,80.300 33.350,80.400 33.350,80.500 33.350,80.600 33.300,80.650 33.250,80.700 33.250,80.800 33.250,80.900 33.250,81.000 33.250,81.100 33.250,81.200 33.250,81.300 33.250,81.400 33.250,81.500 33.250,81.600 33.250,81.700 33.250,81.800 33.200,81.850 33.150,81.900 33.150,82.000 33.150,82.100 33.150,82.200 33.150,82.300 33.150,82.400 33.150,82.500 33.150,82.600 33.150,82.700 33.150,82.800 33.150,82.900 33.150,83.000 33.150,83.100 33.150,83.200 33.150,83.300 33.150,83.400 33.150,83.500 33.150,83.600 33.150,83.700 33.150,83.800 33.150,83.900 33.150,84.000 33.150,84.100 33.150,84.200 33.150,84.300 33.150,84.400 33.150,84.500 33.150,84.600 33.100,84.650 33.050,84.700 33.050,84.800 33.050,84.900 33.000,84.950 32.950,85.000 32.950,85.100 32.950,85.200 32.950,85.300 32.950,85.400 32.950,85.500 32.950,85.600 32.950,85.700 32.900,85.750 32.850,85.800 32.850,85.900 32.850,86.000 32.850,86.100 32.850,86.200 32.850,86.300 32.850,86.400 32.850,86.500 32.850,86.600 32.850,86.700 32.850,86.800 32.850,86.900 32.850,87.000 32.850,87.100 32.850,87.200 32.850,87.300 32.850,87.400 32.850,87.500 32.850,87.600 32.850,87.700 32.850,87.800 32.850,87.900 32.850,88.000 32.850,88.100 32.850,88.200 32.850,88.300 32.850,88.400 32.850,88.500 32.800,88.550 32.750,88.600 32.750,88.700 32.750,88.800 32.750,88.900 32.750,89.000 32.750,89.100 32.750,89.200 32.750,89.300 32.750,89.400 32.750,89.500 32.750,89.600 32.750,89.700 32.750,89.800 32.750,89.900 32.750,90.000 32.750,90.100 32.750,90.200 32.750,90.300 32.750,90.400 32.750,90.500 32.750,90.600 32.750,90.700 32.750,90.800 32.750,90.900 32.750,91.000 32.750,91.100 32.750,91.200 32.750,91.300 32.750,91.400 32.750,91.500 32.750,91.600 32.750,91.700 32.750,91.800 32.750,91.900 32.750,92.000 32.750,92.100 32.750,92.200 32.750,92.300 32.750,92.400 32.750,92.500 32.750,92.600 32.750,92.700 32.750,92.800 32.750,92.900 32.750,93.000 32.750,93.100 32.750,93.200 32.750,93.300 32.750,93.400 32.750,93.500 32.750,93.600 32.750,93.700 32.750,93.800 32.750,93.900 32.750,94.000 32.750,94.100 32.750,94.200 32.750,94.300 32.700,94.350 32.650,94.400 32.700,94.450 32.750,94.500 32.750,94.600 32.750,94.700 32.800,94.750 32.850,94.800 32.850,94.900 32.850,95.000 32.850,95.100 32.850,95.200 32.850,95.300 32.850,95.400 32.850,95.500 32.850,95.600 32.850,95.700 32.850,95.800 32.850,95.900 32.850,96.000 32.850,96.100 32.850,96.200 32.850,96.300 32.850,96.400 32.850,96.500 32.850,96.600 32.850,96.700 32.850,96.800 32.850,96.900 32.850,97.000 32.850,97.100 32.850,97.200 32.850,97.300 32.850,97.400 32.850,97.500 32.850,97.600 32.850,97.700 32.850,97.800 32.850,97.900 32.850,98.000 32.850,98.100 32.850,98.200 32.850,98.300 32.850,98.400 32.850,98.500 32.850,98.600 32.850,98.700 32.850,98.800 32.850,98.900 32.850,99.000 32.850,99.100 32.850,99.200 32.850,99.300 32.850,99.400 32.850,99.500 32.850,99.600 32.850,99.700 32.850,99.800 32.850,99.900 32.850,100.000 32.850,100.100 32.850,100.200 32.850,100.300 32.800,100.350 32.750,100.400 32.750,100.500 32.700,100.550 32.650,100.600 32.650,100.700 32.650,100.800 32.650,100.900 32.650,101.000 32.600,101.050 32.550,101.100 32.550,101.200 32.550,101.300 32.550,101.400 32.500,101.450 32.450,101.500 32.450,101.600 32.450,101.700 32.450,101.800 32.450,101.900 32.400,101.950 32.350,102.000 32.350,102.100 32.350,102.200 32.350,102.300 32.350,102.400 32.350,102.500 32.350,102.600 32.300,102.650 32.250,102.700 32.250,102.800 32.200,102.850 32.150,102.900 32.150,103.000 32.150,103.100 32.100,103.150 32.050,103.200 32.000,103.250 31.950,103.300 31.950,103.400 31.950,103.500 31.900,103.550 31.850,103.600 31.800,103.650 31.750,103.700 31.750,103.800 31.700,103.850 31.650,103.900 31.600,103.950 31.550,104.000 31.500,104.050 31.400,104.050 31.350,104.100 31.300,104.150 31.200,104.150 31.100,104.150 31.050,104.200 31.050,104.300 31.000,104.350 30.900,104.350 30.800,104.350 30.750,104.400 30.700,104.450 30.600,104.450 30.500,104.450 30.450,104.500 30.400,104.550 30.300,104.550 30.200,104.550 30.100,104.550 30.050,104.600 30.000,104.650 29.900,104.650 29.800,104.650 29.700,104.650 29.600,104.650 29.500,104.650 29.450,104.700 29.400,104.750 29.300,104.750 29.200,104.750 29.100,104.750 29.050,104.800 29.000,104.850 28.900,104.850 28.850,104.900 28.800,104.950 28.700,104.950 28.600,104.950 28.500,104.950 28.450,105.000 28.400,105.050 28.300,105.050 28.200,105.050 28.100,105.050 28.000,105.050 27.900,105.050 27.800,105.050 27.750,105.100 27.700,105.150 27.600,105.150 27.500,105.150 27.400,105.150 27.300,105.150 27.200,105.150 27.100,105.150 27.000,105.150 26.900,105.150 26.800,105.150 26.700,105.150 26.600,105.150 26.500,105.150 26.400,105.150 26.300,105.150 26.250,105.100 26.200,105.050 26.100,105.050 26.000,105.050 25.950,105.000 25.900,104.950 25.800,104.950 25.750,104.900 25.700,104.850 25.600,104.850 25.500,104.850 25.450,104.800 25.400,104.750 25.350,104.700 25.300,104.650 25.200,104.650 25.150,104.600 25.100,104.550 25.000,104.550 24.900,104.550 24.850,104.500 24.800,104.450 24.700,104.450 24.650,104.400 24.600,104.350 24.550,104.300 24.500,104.250 24.400,104.250 24.350,104.200 24.350,104.100 24.300,104.050 24.200,104.050 24.100,104.050 24.050,104.000 24.000,103.950 23.950,103.900 23.900,103.850 23.850,103.800 23.800,103.750 23.750,103.700 23.700,103.650 23.650,103.600 23.600,103.550 23.550,103.500 23.500,103.450 23.450,103.400 23.450,103.300 23.400,103.250 23.350,103.200 23.350,103.100 23.350,103.000 23.350,102.900 23.350,102.800 23.350,102.700 23.350,102.600 23.350,102.500 23.350,102.400 23.350,102.300 23.350,102.200 23.350,102.100 23.350,102.000 23.350,101.900 23.400,101.850 23.450,101.800 23.450,101.700 23.450,101.600 23.450,101.500 23.500,101.450 23.550,101.400 23.600,101.350 23.650,101.300 23.650,101.200 23.650,101.100 23.650,101.000 23.650,100.900 23.650,100.800 23.650,100.700 23.700,100.650 23.750,100.600 23.800,100.550 23.850,100.500 23.850,100.400 23.900,100.350 23.950,100.300 24.000,100.250 24.050,100.200 24.100,100.150 24.150,100.100 24.200,100.050 24.250,100.000 24.250,99.900 24.300,99.850 24.350,99.800 24.350,99.700 24.400,99.650 24.450,99.600 24.450,99.500 24.500,99.450 24.550,99.400 24.600,99.350 24.650,99.300 24.650,99.200 24.700,99.150 24.750,99.100 24.750,99.000 24.800,98.950 24.850,98.900 24.900,98.850 24.950,98.800 25.000,98.750 25.050,98.700 25.050,98.600 25.100,98.550 25.150,98.500 25.150,98.400 25.200,98.350 25.250,98.300 25.300,98.250 25.350,98.200 25.400,98.150 25.450,98.100 25.450,98.000 25.500,97.950 25.550,97.900 25.600,97.850 25.650,97.800 25.700,97.750 25.750,97.700 25.800,97.650 25.850,97.600 25.850,97.500 25.900,97.450 25.950,97.400 26.000,97.350 26.050,97.300 26.050,97.200 26.100,97.150 26.150,97.100 26.150,97.000 26.150,96.900 26.200,96.850 26.250,96.800 26.250,96.700 26.250,96.600 26.250,96.500 26.300,96.450 26.350,96.400 26.350,96.300 26.350,96.200 26.350,96.100 26.350,96.000 26.350,95.900 26.350,95.800 26.350,95.700 26.350,95.600 26.350,95.500 26.350,95.400 26.350,95.300 26.350,95.200 26.350,95.100 26.350,95.000 26.350,94.900 26.350,94.800 26.350,94.700 26.300,94.650 26.250,94.600 26.250,94.500 26.250,94.400 26.250,94.300 26.250,94.200 26.250,94.100 26.250,94.000 26.250,93.900 26.250,93.800 26.250,93.700 26.250,93.600 26.250,93.500 26.250,93.400 26.200,93.350 26.150,93.300 26.150,93.200 26.100,93.150 26.050,93.100 26.050,93.000 26.000,92.950 25.950,92.900 25.900,92.850 25.850,92.800 25.850,92.700 25.850,92.600 25.800,92.550 25.750,92.500 25.750,92.400 25.750,92.300 25.700,92.250 25.650,92.200 25.650,92.100 25.650,92.000 25.650,91.900 25.650,91.800 25.650,91.700 25.650,91.600 25.600,91.550 25.550,91.500 25.550,91.400 25.550,91.300 25.500,91.250 25.450,91.200 25.500,91.150 25.550,91.100 25.550,91.000 25.500,90.950 25.450,90.900 25.450,90.800 25.450,90.700 25.450,90.600 25.400,90.550 25.350,90.500 25.350,90.400 25.350,90.300 25.300,90.250 25.250,90.200 25.250,90.100 25.200,90.050 25.150,90.000 25.150,89.900 25.100,89.850 25.050,89.800 25.050,89.700 25.050,89.600 25.000,89.550 24.950,89.500 24.950,89.400 24.950,89.300 24.950,89.200 24.900,89.150 24.850,89.100 24.850,89.000 24.850,88.900 24.850,88.800 24.850,88.700 24.850,88.600 24.800,88.550 24.750,88.500 24.750,88.400 24.750,88.300 24.750,88.200 24.750,88.100 24.700,88.050 24.650,88.000 24.650,87.900 24.650,87.800 24.650,87.700 24.650,87.600 24.650,87.500 24.650,87.400 24.650,87.300 24.650,87.200 24.600,87.150 24.550,87.100 24.550,87.000 24.550,86.900 24.500,86.850 24.450,86.800 24.450,86.700 24.450,86.600 24.450,86.500 24.450,86.400 24.450,86.300 24.400,86.250 24.350,86.200 24.300,86.150 24.250,86.100 24.250,86.000 24.250,85.900 24.250,85.800 24.250,85.700 24.200,85.650 24.150,85.600 24.150,85.500 24.150,85.400 24.150,85.300 24.150,85.200 24.100,85.150 24.050,85.100 24.050,85.000 24.050,84.900 24.000,84.850 23.950,84.800 23.950,84.700 23.950,84.600 23.950,84.500 23.950,84.400 23.950,84.300 23.950,84.200 23.950,84.100 23.950,84.000 23.950,83.900 23.950,83.800 23.950,83.700 23.950,83.600 23.950,83.500 23.900,83.450 23.850,83.400 23.850,83.300 23.850,83.200 23.850,83.100 23.850,83.000 23.800,82.950 23.750,82.900 23.750,82.800 23.750,82.700 23.750,82.600 23.750,82.500 23.750,82.400 23.750,82.300 23.750,82.200 23.700,82.150 23.650,82.100 23.650,82.000 23.650,81.900 23.650,81.800 23.650,81.700 23.650,81.600 23.600,81.550 23.550,81.500 23.550,81.400 23.550,81.300 23.500,81.250 23.450,81.200 23.450,81.100 23.450,81.000 23.450,80.900 23.400,80.850 23.350,80.800 23.350,80.700 23.350,80.600 23.300,80.550 23.250,80.500 23.250,80.400 23.250,80.300 23.200,80.250 23.150,80.200 23.150,80.100 23.100,80.050 23.050,80.000 23.050,79.900 23.050,79.800 23.000,79.750 22.950,79.700 22.950,79.600 22.900,79.550 22.850,79.500 22.850,79.400 22.800,79.350 22.750,79.300 22.750,79.200 22.700,79.150 22.650,79.100 22.650,79.000 22.650,78.900 22.650,78.800 22.600,78.750 22.550,78.700 22.550,78.600 22.500,78.550 22.450,78.500 22.450,78.400 22.450,78.300 22.400,78.250 22.350,78.200 22.350,78.100 22.350,78.000 22.300,77.950 22.250,77.900 22.250,77.800 22.250,77.700 22.250,77.600 22.200,77.550 22.150,77.500 22.150,77.400 22.150,77.300 22.150,77.200 22.150,77.100 22.150,77.000 22.150,76.900 22.150,76.800 22.150,76.700 22.150,76.600 22.150,76.500 22.100,76.450 22.050,76.400 22.050,76.300 22.050,76.200 22.050,76.100 22.050,76.000 22.050,75.900 22.050,75.800 22.050,75.700 22.050,75.600 22.050,75.500 22.050,75.400 22.050,75.300 22.050,75.200 22.050,75.100 22.050,75.000 22.050,74.900 22.050,74.800 22.050,74.700 22.050,74.600 22.000,74.550 21.950,74.500 21.950,74.400 21.950,74.300 21.900,74.250 21.850,74.200 21.850,74.100 21.850,74.000 21.850,73.900 21.850,73.800 21.850,73.700 21.800,73.650 21.750,73.600 21.750,73.500 21.750,73.400 21.700,73.350 21.650,73.300 21.650,73.200 21.650,73.100 21.650,73.000 21.650,72.900 21.600,72.850 21.550,72.800 21.550,72.700 21.550,72.600 21.500,72.550 21.450,72.500 21.450,72.400 21.450,72.300 21.450,72.200 21.450,72.100 21.450,72.000 21.450,71.900 21.450,71.800 21.450,71.700 21.450,71.600 21.450,71.500 21.400,71.450 21.350,71.400 21.350,71.300 21.350,71.200 21.350,71.100 21.350,71.000 21.350,70.900 21.350,70.800 21.350,70.700 21.350,70.600 21.350,70.500 21.350,70.400 21.350,70.300 21.350,70.200 21.350,70.100 21.350,70.000 21.300,69.950 21.250,69.900 21.250,69.800 21.250,69.700 21.250,69.600 21.250,69.500 21.250,69.400 21.250,69.300 21.250,69.200 21.250,69.100 21.250,69.000 21.200,68.950 21.150,68.900 21.150,68.800 21.150,68.700 21.150,68.600 21.150,68.500 21.150,68.400 21.150,68.300 21.150,68.200 21.150,68.100 21.150,68.000 21.150,67.900 21.150,67.800 21.150,67.700 21.150,67.600 21.150,67.500 21.150,67.400 21.150,67.300 21.150,67.200 21.150,67.100 21.150,67.000 21.100,66.950 21.050,66.900 21.050,66.800 21.050,66.700 21.050,66.600 21.050,66.500 21.050,66.400 21.050,66.300 21.050,66.200 21.050,66.100 21.050,66.000 21.050,65.900 21.050,65.800 21.050,65.700 21.050,65.600 21.050,65.500 21.050,65.400 21.050,65.300 21.050,65.200 21.050,65.100 21.050,65.000 21.050,64.900 21.050,64.800 21.000,64.750 20.950,64.700 20.950,64.600 20.950,64.500 21.000,64.450 21.050,64.400 21.000,64.350 20.950,64.300 20.950,64.200 20.950,64.100 20.950,64.000 20.950,63.900 20.950,63.800 20.950,63.700 20.950,63.600 20.950,63.500 20.950,63.400 20.900,63.350 20.850,63.300 20.850,63.200 20.850,63.100 20.850,63.000 20.850,62.900 20.850,62.800 20.850,62.700 20.800,62.650 20.750,62.600 20.750,62.500 20.700,62.450 20.650,62.400 20.650,62.300 20.650,62.200 20.650,62.100 20.600,62.050 20.550,62.000 20.550,61.900 20.550,61.800 20.500,61.750 20.450,61.700 20.450,61.600 20.400,61.550 20.350,61.500 20.350,61.400 20.350,61.300 20.350,61.200 20.350,61.100 20.350,61.000 20.300,60.950 20.250,60.900 20.200,60.850 20.150,60.800 20.150,60.700 20.150,60.600 20.150,60.500 20.150,60.400 20.150,60.300 20.100,60.250 20.050,60.200 20.050,60.100 20.050,60.000 20.000,59.950 19.950,59.900 19.950,59.800 19.900,59.750 19.850,59.700 19.850,59.600 19.850,59.500 19.850,59.400 19.800,59.350 19.750,59.300 19.750,59.200 19.750,59.100 19.750,59.000 19.750,58.900 19.750,58.800 19.750,58.700 19.750,58.600 19.750,58.500 19.750,58.400 19.750,58.300 19.750,58.200 19.750,58.100 19.750,58.000 19.750,57.900 19.750,57.800 19.750,57.700 19.750,57.600 19.750,57.500 19.750,57.400 19.750,57.300 19.750,57.200 19.750,57.100 19.750,57.000 19.750,56.900 19.750,56.800 19.750,56.700 19.750,56.600 19.750,56.500 19.750,56.400 19.750,56.300 19.750,56.200 19.750,56.100 19.750,56.000 19.750,55.900 19.750,55.800 19.750,55.700 19.750,55.600 19.750,55.500 19.750,55.400 19.750,55.300 19.750,55.200 19.750,55.100 19.750,55.000 19.750,54.900 19.750,54.800 19.750,54.700 19.750,54.600 19.750,54.500 19.750,54.400 19.750,54.300 19.750,54.200 19.750,54.100 19.750,54.000 19.750,53.900 19.750,53.800 19.750,53.700 19.750,53.600 19.750,53.500 19.750,53.400 19.750,53.300 19.750,53.200 19.750,53.100 19.750,53.000 19.750,52.900 19.750,52.800 19.750,52.700 19.750,52.600 19.750,52.500 19.750,52.400 19.750,52.300 19.750,52.200 19.750,52.100 19.750,52.000 19.750,51.900 19.750,51.800 19.750,51.700 19.750,51.600 19.750,51.500 19.750,51.400 19.750,51.300 19.750,51.200 19.750,51.100 19.750,51.000 19.750,50.900 19.750,50.800 19.750,50.700 19.750,50.600 19.750,50.500 19.700,50.450 19.650,50.400 19.650,50.300 19.650,50.200 19.600,50.150 19.550,50.100 19.550,50.000 19.550,49.900 19.550,49.800 19.500,49.750 19.450,49.700 19.450,49.600 19.450,49.500 19.400,49.450 19.350,49.400 19.350,49.300 19.300,49.250 19.250,49.200 19.250,49.100 19.200,49.050 19.150,49.000 19.150,48.900 19.100,48.850 19.050,48.800 19.000,48.750 18.950,48.700 18.950,48.600 18.950,48.500 18.900,48.450 18.850,48.400 18.800,48.350 18.750,48.300 18.750,48.200 18.700,48.150 18.650,48.100 18.650,48.000 18.600,47.950 18.550,47.900 18.550,47.800 18.500,47.750 18.450,47.700 18.400,47.650 18.350,47.600 18.350,47.500 18.300,47.450 18.250,47.400 18.250,47.300 18.200,47.250 18.150,47.200 18.150,47.100 18.100,47.050 18.050,47.000 18.050,46.900 18.000,46.850 17.950,46.800 17.950,46.700 17.900,46.650 17.850,46.600 17.850,46.500 17.800,46.450 17.750,46.400 17.750,46.300 17.700,46.250 17.650,46.200 17.650,46.100 17.650,46.000 17.600,45.950 17.550,45.900 17.550,45.800 17.500,45.750 17.450,45.700 17.400,45.650 17.350,45.600 17.350,45.500 17.300,45.450 17.250,45.400 17.250,45.300 17.200,45.250 17.150,45.200 17.100,45.150 17.050,45.100 17.050,45.000 17.000,44.950 16.950,44.900 16.950,44.800 16.900,44.750 16.850,44.700 16.850,44.600 16.800,44.550 16.750,44.500 16.700,44.450 16.650,44.400 16.600,44.350 16.550,44.300 16.500,44.250 16.450,44.200 16.400,44.150 16.350,44.100 16.300,44.050 16.250,44.000 16.200,43.950 16.150,43.900 16.150,43.800 16.100,43.750 16.050,43.700 16.000,43.650 15.900,43.650 15.850,43.600 15.800,43.550 15.750,43.500 15.700,43.450 15.600,43.450 15.550,43.500 15.500,43.550 15.400,43.550 15.300,43.550 15.250,43.600 15.200,43.650 15.100,43.650 15.050,43.700 15.000,43.750 14.950,43.800 14.900,43.850 14.850,43.900 14.800,43.950 14.750,44.000 14.700,44.050 14.650,44.100 14.650,44.200 14.600,44.250 14.550,44.300 14.500,44.350 14.450,44.400 14.450,44.500 14.450,44.600 14.400,44.650 14.350,44.700 14.350,44.800 14.300,44.850 14.250,44.900 14.250,45.000 14.250,45.100 14.200,45.150 14.150,45.200 14.150,45.300 14.150,45.400 14.150,45.500 14.150,45.600 14.100,45.650 14.050,45.700 14.050,45.800 14.050,45.900 14.000,45.950 13.950,46.000 13.950,46.100 13.950,46.200 13.900,46.250 13.850,46.300 13.850,46.400 13.850,46.500 13.800,46.550 13.750,46.600 13.750,46.700 13.700,46.750 13.650,46.800 13.650,46.900 13.650,47.000 13.600,47.050 13.550,47.100 13.550,47.200 13.500,47.250 13.450,47.300 13.450,47.400 13.400,47.450 13.350,47.500 13.300,47.550 13.250,47.600 13.250,47.700 13.250,47.800 13.250,47.900 13.250,48.000 13.250,48.100 13.250,48.200 13.250,48.300 13.250,48.400 13.250,48.500 13.250,48.600 13.250,48.700 13.200,48.750 13.150,48.800 13.150,48.900 13.150,49.000 13.150,49.100 13.150,49.200 13.150,49.300 13.100,49.350 13.050,49.400 13.050,49.500 13.050,49.600 13.000,49.650 12.950,49.700 12.950,49.800 12.950,49.900 12.900,49.950 12.850,50.000 12.850,50.100 12.850,50.200 12.850,50.300 12.850,50.400 12.850,50.500 12.850,50.600 12.850,50.700 12.850,50.800 12.850,50.900 12.850,51.000 12.850,51.100 12.850,51.200 12.850,51.300 12.850,51.400 12.850,51.500 12.850,51.600 12.850,51.700 12.850,51.800 12.850,51.900 12.850,52.000 12.850,52.100 12.850,52.200 12.900,52.250 12.950,52.300 12.950,52.400 12.950,52.500 12.950,52.600 12.950,52.700 12.950,52.800 12.950,52.900 13.000,52.950 13.050,53.000 13.050,53.100 13.050,53.200 13.050,53.300 13.050,53.400 13.050,53.500 13.050,53.600 13.050,53.700 13.050,53.800 13.050,53.900 13.050,54.000 13.050,54.100 13.100,54.150 13.150,54.200 13.150,54.300 13.150,54.400 13.150,54.500 13.150,54.600 13.150,54.700 13.200,54.750 13.250,54.800 13.250,54.900 13.250,55.000 13.250,55.100 13.300,55.150 13.350,55.200 13.350,55.300 13.350,55.400 13.350,55.500 13.350,55.600 13.350,55.700 13.400,55.750 13.450,55.800 13.450,55.900 13.450,56.000 13.450,56.100 13.450,56.200 13.500,56.250 13.550,56.300 13.550,56.400 13.550,56.500 13.550,56.600 13.600,56.650 13.650,56.700 13.650,56.800 13.650,56.900 13.650,57.000 13.650,57.100 13.700,57.150 13.750,57.200 13.750,57.300 13.750,57.400 13.750,57.500 13.750,57.600 13.800,57.650 13.850,57.700 13.850,57.800 13.850,57.900 13.850,58.000 13.850,58.100 13.850,58.200 13.900,58.250 13.950,58.300 13.900,58.350 13.850,58.400 13.900,58.450 13.950,58.500 13.950,58.600 13.950,58.700 14.000,58.750 14.050,58.800 14.050,58.900 14.050,59.000 14.100,59.050 14.150,59.100 14.150,59.200 14.150,59.300 14.200,59.350 14.250,59.400 14.300,59.450 14.350,59.500 14.350,59.600 14.400,59.650 14.450,59.700 14.450,59.800 14.500,59.850 14.550,59.900 14.600,59.950 14.650,60.000 14.700,60.050 14.750,60.100 14.800,60.150 14.850,60.200 14.900,60.250 14.950,60.300 15.000,60.350 15.050,60.400 15.100,60.450 15.150,60.500 15.200,60.550 15.250,60.600 15.300,60.650 15.350,60.700 15.350,60.800 15.400,60.850 15.500,60.850 15.550,60.900 15.550,61.000 15.600,61.050 15.650,61.100 15.650,61.200 15.700,61.250 15.750,61.300 15.750,61.400 15.750,61.500 15.800,61.550 15.850,61.600 15.850,61.700 15.850,61.800 15.800,61.850 15.750,61.900 15.750,62.000 15.800,62.050 15.850,62.100 15.800,62.150 15.750,62.200 15.750,62.300 15.750,62.400 15.700,62.450 15.650,62.500 15.650,62.600 15.650,62.700 15.650,62.800 15.650,62.900 15.600,62.950 15.550,63.000 15.550,63.100 15.550,63.200 15.500,63.250 15.450,63.300 15.450,63.400 15.450,63.500 15.400,63.550 15.350,63.600 15.300,63.650 15.250,63.700 15.250,63.800 15.200,63.850 15.150,63.900 15.100,63.950 15.050,64.000 15.050,64.100 15.000,64.150 14.950,64.200 14.900,64.250 14.850,64.300 14.800,64.350 14.750,64.400 14.750,64.500 14.700,64.550 14.650,64.600 14.600,64.650 14.550,64.700 14.500,64.750 14.450,64.800 14.400,64.850 14.300,64.850 14.250,64.900 14.250,65.000 14.200,65.050 14.150,65.100 14.150,65.200 14.100,65.250 14.000,65.250 13.950,65.300 13.900,65.350 13.850,65.400 13.800,65.450 13.750,65.500 13.700,65.550 13.600,65.550 13.550,65.600 13.500,65.650 13.400,65.650 13.300,65.650 13.200,65.650 13.100,65.650 13.000,65.650 12.900,65.650 12.800,65.650 12.700,65.650 12.600,65.650 12.500,65.650 12.400,65.650 12.300,65.650 12.250,65.600 12.200,65.550 12.100,65.550 12.000,65.550 11.900,65.550 11.800,65.550 11.700,65.550 11.600,65.550 11.500,65.550 11.400,65.550 11.300,65.550 11.200,65.550 11.100,65.550 11.000,65.550 10.900,65.550 10.800,65.550 10.700,65.550 10.600,65.550 10.500,65.550 10.400,65.550 10.350,65.500 10.300,65.450 10.200,65.450 10.100,65.450 10.000,65.450 9.900,65.450 9.800,65.450 9.700,65.450 9.600,65.450 9.500,65.450 9.400,65.450 9.300,65.450 9.250,65.400 9.200,65.350 9.150,65.300 9.100,65.250 9.050,65.200 9.000,65.150 8.950,65.100 8.950,65.000 8.900,64.950 8.850,64.900 8.850,64.800 8.800,64.750 8.750,64.700 8.750,64.600 8.700,64.550 8.650,64.500 8.600,64.450 8.550,64.400 8.500,64.350 8.450,64.300 8.400,64.250 8.350,64.200 8.350,64.100 8.350,64.000 8.300,63.950 8.250,63.900 8.250,63.800 8.250,63.700 8.250,63.600 8.250,63.500 8.200,63.450 8.150,63.400 8.100,63.350 8.050,63.300 8.050,63.200 8.050,63.100 8.050,63.000 8.050,62.900 8.000,62.850 7.950,62.800 7.950,62.700 7.950,62.600 7.900,62.550 7.850,62.500 7.850,62.400 7.850,62.300 7.850,62.200 7.800,62.150 7.750,62.100 7.750,62.000 7.750,61.900 7.750,61.800 7.700,61.750 7.650,61.700 7.650,61.600 7.650,61.500 7.650,61.400 7.600,61.350 7.550,61.300 7.550,61.200 7.550,61.100 7.500,61.050 7.450,61.000 7.450,60.900 7.450,60.800 7.400,60.750 7.350,60.700 7.350,60.600 7.350,60.500 7.350,60.400 7.350,60.300 7.350,60.200 7.300,60.150 7.250,60.100 7.250,60.000 7.250,59.900 7.250,59.800 7.250,59.700 7.200,59.650 7.150,59.600 7.150,59.500 7.150,59.400 7.150,59.300 7.150,59.200 7.150,59.100 7.150,59.000 7.100,58.950 7.050,58.900 7.050,58.800 7.050,58.700 7.050,58.600 7.000,58.550 6.950,58.500 6.950,58.400 6.950,58.300 6.900,58.250 6.850,58.200 6.850,58.100 6.850,58.000 6.800,57.950 6.750,57.900 6.700,57.850 6.650,57.800 6.600,57.750 6.550,57.700 6.550,57.600 6.550,57.500 6.500,57.450 6.450,57.400 6.450,57.300 6.450,57.200 6.400,57.150 6.350,57.100 6.350,57.000 6.300,56.950 6.250,56.900 6.250,56.800 6.250,56.700 6.250,56.600 6.200,56.550 6.150,56.500 6.150,56.400 6.150,56.300 6.150,56.200 6.100,56.150 6.050,56.100 6.050,56.000 6.000,55.950 5.950,55.900 5.950,55.800 5.950,55.700 5.900,55.650 5.850,55.600 5.850,55.500 5.800,55.450 5.750,55.400 5.750,55.300 5.750,55.200 5.700,55.150 5.650,55.100 5.650,55.000 5.600,54.950 5.550,54.900 5.500,54.850 5.450,54.800 5.450,54.700 5.450,54.600 5.400,54.550 5.350,54.500 5.300,54.450 5.250,54.400 5.200,54.350 5.150,54.300 5.150,54.200 5.100,54.150 5.050,54.100 5.000,54.050 4.950,54.000 4.950,53.900 4.900,53.850 4.850,53.800 4.800,53.750 4.750,53.700 4.750,53.600 4.700,53.550 4.650,53.500 4.650,53.400 4.650,53.300 4.600,53.250 4.550,53.200 4.550,53.100 4.500,53.050 4.450,53.000 4.450,52.900 4.400,52.850 4.350,52.800 4.350,52.700 4.300,52.650 4.250,52.600 4.250,52.500 4.250,52.400 4.250,52.300 4.250,52.200 4.200,52.150 4.150,52.100 4.150,52.000 4.150,51.900 4.150,51.800 4.100,51.750 4.050,51.700 4.050,51.600 4.050,51.500 4.000,51.450 3.950,51.400 3.950,51.300 3.900,51.250 3.850,51.200 3.850,51.100 3.850,51.000 3.800,50.950 3.750,50.900 3.750,50.800 3.750,50.700 3.700,50.650 3.650,50.600 3.650,50.500 3.650,50.400 3.650,50.300 3.600,50.250 3.550,50.200 3.550,50.100 3.550,50.000 3.550,49.900 3.500,49.850 3.450,49.800 3.450,49.700 3.450,49.600 3.450,49.500 3.400,49.450 3.350,49.400 3.350,49.300 3.350,49.200 3.350,49.100 3.350,49.000 3.350,48.900 3.300,48.850 3.250,48.800 3.250,48.700 3.250,48.600 3.250,48.500 3.250,48.400 3.250,48.300 3.200,48.250 3.150,48.200 3.150,48.100 3.150,48.000 3.150,47.900 3.150,47.800 3.100,47.750 3.050,47.700 3.050,47.600 3.050,47.500 3.050,47.400 3.000,47.350 2.950,47.300 2.950,47.200 2.950,47.100 2.950,47.000 2.950,46.900 2.900,46.850 2.850,46.800 2.850,46.700 2.850,46.600 2.850,46.500 2.850,46.400 2.800,46.350 2.750,46.300 2.750,46.200 2.750,46.100 2.750,46.000 2.750,45.900 2.750,45.800 2.700,45.750 2.650,45.700 2.650,45.600 2.650,45.500 2.650,45.400 2.650,45.300 2.650,45.200 2.650,45.100 2.650,45.000 2.600,44.950 2.550,44.900 2.550,44.800 2.550,44.700 2.550,44.600 2.550,44.500 2.550,44.400 2.550,44.300 2.550,44.200 2.550,44.100 2.550,44.000 2.500,43.950 2.450,43.900 2.450,43.800 2.450,43.700 2.450,43.600 2.450,43.500 2.450,43.400 2.450,43.300 2.450,43.200 2.450,43.100 2.450,43.000 2.500,42.950 2.550,42.900 2.550,42.800 2.550,42.700 2.550,42.600 2.550,42.500 2.600,42.450 2.650,42.400 2.650,42.300 2.650,42.200 2.650,42.100 2.650,42.000 2.650,41.900 2.650,41.800 2.650,41.700 2.650,41.600 2.650,41.500 2.650,41.400 2.650,41.300 2.650,41.200 2.650,41.100 2.650,41.000 2.650,40.900 2.650,40.800 2.650,40.700 2.700,40.650 2.750,40.600 2.750,40.500 2.750,40.400 2.800,40.350 2.850,40.300 2.850,40.200 2.850,40.100 2.850,40.000 2.850,39.900 2.900,39.850 2.950,39.800 2.950,39.700 2.950,39.600 2.950,39.500 2.950,39.400 3.000,39.350 3.050,39.300 3.100,39.250 3.150,39.200 3.150,39.100 3.150,39.000 3.150,38.900 3.150,38.800 3.200,38.750 3.250,38.700 3.250,38.600 3.300,38.550 3.350,38.500 3.350,38.400 3.350,38.300 3.350,38.200 3.400,38.150 3.450,38.100 3.450,38.000 3.450,37.900 3.450,37.800 3.500,37.750 3.550,37.700 3.550,37.600 3.550,37.500 3.550,37.400 3.550,37.300 3.600,37.250 3.650,37.200 3.650,37.100 3.650,37.000 3.650,36.900 3.650,36.800 3.650,36.700 3.650,36.600 3.650,36.500 3.650,36.400 3.650,36.300 3.650,36.200 3.650,36.100 3.650,36.000 3.650,35.900 3.650,35.800 3.700,35.750 3.750,35.700 3.800,35.650 3.850,35.600 3.850,35.500 3.900,35.450 3.950,35.400 3.950,35.300 4.000,35.250 4.050,35.200 4.050,35.100 4.100,35.050 4.150,35.000 4.150,34.900 4.150,34.800 4.200,34.750 4.250,34.700 4.250,34.600 4.300,34.550 4.350,34.500 4.350,34.400 4.350,34.300 4.400,34.250 4.450,34.200 4.450,34.100 4.450,34.000 4.500,33.950 4.550,33.900 4.550,33.800 4.600,33.750 4.650,33.700 4.650,33.600 4.650,33.500 4.700,33.450 4.750,33.400 4.800,33.350 4.850,33.300 4.850,33.200 4.900,33.150 4.950,33.100 5.000,33.050 5.050,33.000 5.050,32.900 5.100,32.850 5.150,32.800 5.200,32.750 5.250,32.700 5.300,32.650 5.350,32.600 5.400,32.550 5.450,32.500 5.450,32.400 5.500,32.350 5.550,32.300 5.600,32.250 5.650,32.200 5.700,32.150 5.750,32.100 5.750,32.000 5.800,31.950 5.850,31.900 5.900,31.850 5.950,31.800 5.950,31.700 6.000,31.650 6.050,31.600 6.100,31.550 6.150,31.500 6.200,31.450 6.250,31.400 6.300,31.350 6.350,31.300 6.400,31.250 6.450,31.200 6.450,31.100 6.450,31.000 6.500,30.950 6.550,30.900 6.600,30.850 6.650,30.800 6.650,30.700 6.700,30.650 6.750,30.600 6.800,30.550 6.850,30.500 6.900,30.450 6.950,30.400 6.950,30.300 7.000,30.250 7.050,30.200 7.050,30.100 7.100,30.050 7.150,30.000 7.200,29.950 7.250,29.900 7.250,29.800 7.250,29.700 7.300,29.650 7.350,29.600 7.400,29.550 7.450,29.500 7.500,29.450 7.550,29.400 7.600,29.350 7.650,29.300 7.700,29.250 7.750,29.200 7.800,29.150 7.850,29.100 7.900,29.050 7.950,29.000 7.950,28.900 8.000,28.850 8.050,28.800 8.100,28.750 8.150,28.700 8.200,28.650 8.250,28.600 8.300,28.550 8.350,28.500 8.400,28.450 8.450,28.400 8.500,28.350 8.550,28.300 8.550,28.200 8.600,28.150 8.650,28.100 8.700,28.050 8.750,28.000 8.800,27.950 8.850,27.900 8.900,27.850 8.950,27.800 9.000,27.750 9.050,27.700 9.100,27.650 9.200,27.650 9.250,27.600 9.300,27.550 9.350,27.500 9.400,27.450 9.450,27.400 9.500,27.350 9.550,27.300 9.600,27.250 9.650,27.200 9.700,27.150 9.800,27.150 9.850,27.100 9.900,27.050 10.000,27.050 10.100,27.050 10.150,27.000 10.200,26.950 10.250,26.900 10.300,26.850 10.350,26.800 10.400,26.750 10.500,26.750 10.600,26.750 10.700,26.750 10.750,26.700 10.800,26.650 10.900,26.650 10.950,26.600 11.000,26.550 11.050,26.500 11.100,26.450 11.150,26.400 11.200,26.350 11.250,26.300 11.300,26.250 11.400,26.250 11.450,26.200 11.500,26.150 11.600,26.150 11.700,26.150 11.800,26.150 11.850,26.100 11.900,26.050 12.000,26.050 12.100,26.050 12.200,26.050 12.300,26.050 12.400,26.050 12.500,26.050 12.550,26.000 12.600,25.950 12.700,25.950 12.750,25.900 12.800,25.850 12.900,25.850 12.950,25.800 13.000,25.750 13.100,25.750 13.150,25.700 13.200,25.650 13.300,25.650 13.400,25.650 13.500,25.650 13.600,25.650 13.650,25.600 13.700,25.550 13.800,25.550 13.900,25.550 14.000,25.550 14.050,25.500 14.100,25.450 14.200,25.450 14.250,25.400 14.300,25.350 14.350,25.300 14.400,25.250 14.450,25.200 14.500,25.150 14.550,25.100 14.550,25.000 14.600,24.950 14.650,24.900 14.650,24.800 14.650,24.700 14.650,24.600 14.650,24.500 14.650,24.400 14.650,24.300 14.650,24.200 14.650,24.100 14.650,24.000 14.650,23.900 14.650,23.800 14.650,23.700 14.650,23.600 14.650,23.500 14.650,23.400 14.650,23.300 14.650,23.200 14.650,23.100 14.650,23.000 14.650,22.900 14.650,22.800 14.650,22.700 14.650,22.600 14.650,22.500 14.650,22.400 14.650,22.300 14.650,22.200 14.700,22.150 14.750,22.100 14.750,22.000 14.750,21.900 14.750,21.800 14.750,21.700 14.750,21.600 14.800,21.550 14.850,21.500 14.850,21.400 14.850,21.300 14.850,21.200 14.850,21.100 14.850,21.000 14.850,20.900 14.850,20.800 14.900,20.750 14.950,20.700 14.950,20.600 14.950,20.500 14.950,20.400 14.950,20.300 14.950,20.200 14.950,20.100 14.950,20.000 15.000,19.950 15.050,19.900 15.050,19.800 15.050,19.700 15.050,19.600 15.050,19.500 15.050,19.400 15.050,19.300 15.050,19.200 15.050,19.100 15.050,19.000 15.050,18.900 15.050,18.800 15.050,18.700 15.000,18.650 14.950,18.600 14.950,18.500 14.950,18.400 14.950,18.300 14.950,18.200 14.900,18.150 14.850,18.100 14.850,18.000 14.850,17.900 14.800,17.850 14.750,17.800 14.750,17.700 14.750,17.600 14.700,17.550 14.650,17.500 14.600,17.450 14.550,17.400 14.550,17.300 14.550,17.200 14.500,17.150 14.450,17.100 14.400,17.050 14.350,17.000 14.300,16.950 14.250,16.900 14.250,16.800 14.200,16.750 14.150,16.700 14.100,16.650 14.050,16.600 14.050,16.500 14.000,16.450 13.950,16.400 13.950,16.300 13.900,16.250 13.850,16.200 13.800,16.150 13.750,16.100 13.750,16.000 13.700,15.950 13.650,15.900 13.600,15.850 13.550,15.800 13.550,15.700 13.550,15.600 13.500,15.550 13.450,15.500 13.450,15.400 13.400,15.350 13.350,15.300 13.350,15.200 13.350,15.100 13.300,15.050 13.250,15.000 13.250,14.900 13.200,14.850 13.150,14.800 13.150,14.700 13.100,14.650 13.050,14.600 13.050,14.500 13.000,14.450 12.950,14.400 12.950,14.300 12.900,14.250 12.850,14.200 12.850,14.100 12.800,14.050 12.750,14.000 12.750,13.900 12.700,13.850 12.650,13.800 12.650,13.700 12.600,13.650 12.550,13.600 12.550,13.500 12.550,13.400 12.500,13.350 12.450,13.300 12.450,13.200 12.450,13.100 12.400,13.050 12.350,13.000 12.350,12.900 12.350,12.800 12.300,12.750 12.250,12.700 12.250,12.600 12.250,12.500 12.250,12.400 12.250,12.300 12.200,12.250 12.150,12.200 12.150,12.100 12.150,12.000 12.150,11.900 12.100,11.850 12.050,11.800 12.050,11.700 12.050,11.600 12.050,11.500 12.050,11.400 12.000,11.350 11.950,11.300 11.950,11.200 11.900,11.150 11.850,11.100 11.850,11.000 11.850,10.900 11.850,10.800 11.800,10.750 11.750,10.700 11.750,10.600 11.750,10.500 11.750,10.400 11.750,10.300 11.700,10.250 11.650,10.200 11.600,10.150 11.550,10.100 11.550,10.000 11.550,9.900 11.550,9.800 11.550,9.700 11.550,9.600 11.550,9.500 11.550,9.400 11.550,9.300 11.550,9.200 11.500,9.150 11.450,9.100 11.450,9.000 11.450,8.900 11.400,8.850 11.350,8.800 11.350,8.700 11.350,8.600 11.350,8.500 11.350,8.400 11.350,8.300 11.350,8.200 11.350,8.100 11.350,8.000 11.300,7.950 11.250,7.900 11.300,7.850 11.350,7.800 11.350,7.700 11.350,7.600 11.350,7.500 11.350,7.400 11.350,7.300 11.350,7.200 11.350,7.100 11.350,7.000 11.350,6.900 11.350,6.800 11.350,6.700 11.350,6.600 11.350,6.500 11.350,6.400 11.350,6.300 11.350,6.200 11.350,6.100 11.350,6.000 11.350,5.900 11.350,5.800 11.350,5.700 11.350,5.600 11.350,5.500 11.350,5.400 11.350,5.300 11.400,5.250 11.450,5.200 11.450,5.100 11.450,5.000 11.500,4.950 11.550,4.900 11.550,4.800 11.600,4.750 11.650,4.700 11.700,4.650 11.800,4.650 11.850,4.600 11.900,4.550 12.000,4.550 12.050,4.500 12.100,4.450 12.200,4.450 12.300,4.450 12.400,4.450 12.500,4.450 12.600,4.450 12.700,4.450 12.800,4.450 12.900,4.450 12.950,4.500 13.000,4.550 13.100,4.550 13.200,4.550 13.300,4.550 13.350,4.600 13.400,4.650 13.500,4.650 13.600,4.650 13.650,4.700 13.700,4.750 13.800,4.750 13.850,4.800 13.900,4.850 14.000,4.850 14.050,4.900 14.100,4.950 14.200,4.950 14.250,5.000 14.300,5.050 14.400,5.050 14.500,5.050 14.550,5.100 14.600,5.150 14.700,5.150 14.800,5.150 14.900,5.150 15.000,5.150 15.050,5.200 15.100,5.250 15.200,5.250 15.250,5.300 15.300,5.350 15.400,5.350 15.500,5.350 15.550,5.400 15.600,5.450 15.700,5.450 15.800,5.450 15.850,5.500 15.900,5.550 15.950,5.600 16.000,5.650 16.050,5.600 16.100,5.550 16.200,5.550 16.250,5.600 16.300,5.650 16.400,5.650 16.450,5.700 16.500,5.750 16.600,5.750 16.650,5.800 16.700,5.850 16.800,5.850 16.850,5.900 16.900,5.950 17.000,5.950 17.050,6.000 17.100,6.050 17.150,6.100 17.200,6.150 17.300,6.150 17.350,6.200 17.400,6.250 17.500,6.250 17.550,6.300 17.600,6.350 17.700,6.350 17.750,6.400 17.800,6.450 17.900,6.450 17.950,6.500 18.000,6.550 18.100,6.550 18.200,6.550 18.300,6.550 18.350,6.600 18.400,6.650 18.500,6.650 18.550,6.700 18.600,6.750 18.650,6.800 18.700,6.850 18.800,6.850 18.850,6.900 18.900,6.950 19.000,6.950 19.050,7.000 19.100,7.050 19.200,7.050 19.250,7.100 19.300,7.150 19.400,7.150 19.450,7.200 19.500,7.250 19.600,7.250 19.650,7.300 19.700,7.350 19.800,7.350 19.850,7.400 19.900,7.450 20.000,7.450 20.050,7.500 20.100,7.550 20.200,7.550 20.250,7.600 20.300,7.650 20.400,7.650 20.450,7.700 20.500,7.750 20.600,7.750 20.650,7.800 20.700,7.850 20.750,7.900 20.800,7.950 20.900,7.950 21.000,7.950 21.050,8.000 21.100,8.050 21.200,8.050 21.300,8.050 21.350,8.100 21.400,8.150 21.450,8.200 21.500,8.250 21.600,8.250 21.650,8.300 21.700,8.350 21.800,8.350 21.850,8.400 21.900,8.450 22.000,8.450 22.100,8.450 22.150,8.500 22.200,8.550 22.300,8.550 22.400,8.550 22.500,8.550 22.600,8.550 22.700,8.550 22.800,8.550 22.900,8.550 23.000,8.550 23.100,8.550 23.200,8.550 23.300,8.550 23.400,8.550 23.500,8.550 23.600,8.550 23.700,8.550 23.800,8.550 23.900,8.550 24.000,8.550 24.100,8.550 24.200,8.550 24.300,8.550 24.400,8.550 24.500,8.550 24.600,8.550 24.650,8.500 24.700,8.450 24.800,8.450 24.900,8.450 25.000,8.450 25.100,8.450 25.200,8.450 25.300,8.450 25.350,8.400 25.400,8.350 25.500,8.350 25.550,8.300 25.600,8.250 25.700,8.250 25.800,8.250 25.900,8.250 26.000,8.250 26.100,8.250 26.200,8.250 26.300,8.250 26.400,8.250 26.500,8.250 26.600,8.250 26.700,8.250 26.750,8.200 26.800,8.150 26.900,8.150 27.000,8.150 27.100,8.150 27.150,8.200 27.200,8.250 27.250,8.200 27.300,8.150 27.400,8.150 27.500,8.150 27.550,8.100 27.600,8.050 27.700,8.050 27.800,8.050 27.900,8.050 28.000,8.050 28.100,8.050 28.200,8.050 28.300,8.050 28.400,8.050 28.500,8.050 28.600,8.050 28.700,8.050 28.800,8.050 28.900,8.050 29.000,8.050 29.100,8.050 29.200,8.050 29.300,8.050 29.400,8.050 29.450,8.000 29.500,7.950 29.550,8.000 29.600,8.050 29.700,8.050 29.800,8.050 29.900,8.050 30.000,8.050 30.050,8.000 30.100,7.950 30.200,7.950 30.300,7.950 30.400,7.950 30.500,7.950 30.550,7.900 30.600,7.850 30.700,7.850 30.800,7.850 30.900,7.850 31.000,7.850 31.100,7.850 31.200,7.850 31.300,7.850 31.400,7.850 31.500,7.850 31.600,7.850 31.700,7.850 31.800,7.850 31.900,7.850 32.000,7.850 32.100,7.850 32.200,7.850 32.300,7.850 32.400,7.850 32.500,7.850 32.600,7.850 32.700,7.850 32.800,7.850 32.900,7.850 33.000,7.850 33.100,7.850 33.200,7.850 33.250,7.800 33.300,7.750 33.400,7.750 33.500,7.750 33.600,7.750 33.700,7.750 33.800,7.750 33.850,7.700 33.900,7.650 34.000,7.650 34.100,7.650 34.150,7.600 34.200,7.550 34.300,7.550 34.400,7.550 34.450,7.500 34.500,7.450 34.600,7.450 34.700,7.450 34.750,7.400 34.800,7.350 34.900,7.350" />
</g>
</svg>
